# Blender v2.77 (sub 0) OBJ File: 'all.blend'
# www.blender.org
mtllib floor_1.mtl
o Floor_A_Untitled.001
v -2.438384 -0.099984 -1.512228
v -1.438360 -0.099984 -1.512228
v -1.438360 -0.099985 -0.512152
v -2.438384 -0.099985 -0.512152
v -2.438384 -0.000000 -1.512228
v -1.438360 -0.000000 -1.512228
v -1.438360 -0.000000 -0.512152
v -2.438384 -0.000000 -0.512152
vt 0.0028 0.0002
vt 0.9989 0.9980
vt 0.9991 0.0003
vt 0.0050 0.0012
vt 0.9987 0.9989
vt 0.0015 0.9990
vt 0.0028 0.9985
vt -0.1354 0.0017
vt -0.1354 0.9997
vt 0.9990 -0.1405
vt 0.0029 -0.1406
vt 1.1386 0.0017
vt 0.0028 1.1199
vt 0.9990 0.0016
vt 1.1383 0.9995
vt 0.9988 1.1194
vn 0.0000 1.0000 0.0000
vn 0.0000 -1.0000 -0.0000
vn 0.0000 0.0000 -1.0000
vn 1.0000 0.0000 0.0000
vn 0.0000 0.0000 1.0000
vn -1.0000 0.0000 0.0000
usemtl M_Bricks
s 1
f 6/1/1 8/2/1 7/3/1
f 2/4/2 4/5/2 1/6/2
f 5/7/3 2/8/3 1/9/3
f 6/1/4 3/10/4 2/11/4
f 8/2/5 3/12/5 7/3/5
f 1/13/6 8/2/6 5/7/6
f 6/1/1 5/7/1 8/2/1
f 2/4/2 3/14/2 4/5/2
f 5/7/3 6/1/3 2/8/3
f 6/1/4 7/3/4 3/10/4
f 8/2/5 4/15/5 3/12/5
f 1/13/6 4/16/6 8/2/6
