# Blender v2.77 (sub 0) OBJ File: ''
# www.blender.org
mtllib house12.mtl
o City_building_011.001
v 0.22457781294965 0.925501 -0.0080352374100565
v 0.22457781294965 0.785501 1.6088847625899
v 0.65529781294965 0.785501 1.6088847625899
v 0.65529781294965 0.925501 -0.0080352374100565
v 0.22457781294965 0.743801 1.5897847625899
v 0.22457781294965 0.000001 1.5897847625899
v 0.65529781294965 0.000001 1.5897847625899
v 0.65529781294965 0.743801 1.5897847625899
v 0.22457781294965 0.743341 1.5994047625899
v 0.65529781294965 0.743341 1.5994047625899
v 0.65529781294965 0.785501 -1.7086552374101
v 0.22457781294965 0.785501 -1.7086552374101
v 0.22457781294965 0.925501 -0.091754237410056
v 0.65529781294965 0.925501 -0.091754237410056
v 0.65529781294965 0.000001 -1.6895742374101
v 0.22457781294965 0.000001 -1.6895742374101
v 0.22457781294965 0.743801 -1.6895742374101
v 0.65529781294965 0.743801 -1.6895742374101
v 0.65529781294965 0.743341 -1.6991952374101
v 0.22457781294965 0.743341 -1.6991952374101
v -0.20642218705035 0.925501 -0.0080352374100565
v -0.20642218705035 0.785501 1.6088847625899
v -0.20642218705035 0.743801 1.5897847625899
v -0.20642218705035 0.000001 1.5897847625899
v -0.20642218705035 0.743341 1.5994047625899
v -0.20642218705035 0.785501 -1.7086552374101
v -0.20642218705035 0.925501 -0.091754237410056
v -0.20642218705035 0.000001 -1.6895742374101
v -0.20642218705035 0.743801 -1.6895742374101
v -0.20642218705035 0.743341 -1.6991952374101
v 1.1047178129496 0.785501 1.6088847625899
v 1.1047178129496 0.925501 -0.0080352374100565
v 1.0871378129496 0.000001 1.5897847625899
v 1.0871378129496 0.743801 1.5897847625899
v 1.1047178129496 0.743341 1.5994047625899
v 1.1047178129496 0.925501 -0.091754237410056
v 1.1047178129496 0.785501 -1.7086552374101
v 1.0871378129496 0.743801 -1.6895742374101
v 1.0871378129496 0.000001 -1.6895742374101
v 1.1047178129496 0.743341 -1.6991952374101
v -0.63870318705035 0.743801 1.5897847625899
v -0.63870318705035 0.000001 1.5897847625899
v -0.65632318705035 0.743341 1.5994047625899
v -0.63870318705035 0.000001 -1.6895742374101
v -0.63870318705035 0.743801 -1.6895742374101
v -0.65632318705035 0.743341 -1.6991952374101
v -0.63870318705035 -0.000479 1.1484647625899
v -0.63870318705035 -0.000479 1.3936047625899
v -0.63870318705035 0.472881 1.3936047625899
v -0.63870318705035 0.472881 1.1484647625899
v -0.64388218705035 0.752201 -0.16587523741005
v -0.64388218705035 0.752201 0.075104762589944
v -0.64388218705035 0.844041 0.075104762589944
v -0.64388218705035 0.844041 -0.16587523741005
v -0.63870318705035 0.864721 -0.049895237410056
v -0.63870318705035 0.658841 -0.049895237410056
v -0.59154218705035 0.000001 -0.049895237410056
v -0.59154218705035 0.000001 0.53930576258995
v -0.59154218705035 0.658841 0.53930576258995
v -0.59154218705035 0.658841 -0.049895237410056
v -0.63870318705035 0.658841 0.53930576258995
v -0.63870318705035 0.000001 0.53930576258995
v -0.65632318705035 0.925501 -0.0080352374100565
v -0.65632318705035 0.785501 1.6088847625899
v -0.63870318705035 0.000001 -0.63909423741005
v -0.63870318705035 0.658841 -0.63909423741005
v -0.59154218705035 0.658841 -0.63909423741005
v -0.59154218705035 0.000001 -0.63909423741005
v -0.65632318705035 0.785501 -1.7086552374101
v -0.65632318705035 0.925501 -0.091754237410056
v -0.65632318705035 0.864721 -0.049895237410056
v 1.0871378129496 -0.000479 1.1484647625899
v 1.0871378129496 0.472881 1.1484647625899
v 1.0871378129496 0.472881 1.3936047625899
v 1.0871378129496 -0.000479 1.3936047625899
v 1.0883968129496 0.758341 -0.16843423741005
v 1.0883968129496 0.851421 -0.16843423741005
v 1.0883968129496 0.851421 0.075104762589944
v 1.0883968129496 0.758341 0.075104762589944
v 1.0871378129496 0.864721 -0.049895237410056
v 1.0871378129496 0.658841 -0.049895237410056
v 1.0399378129496 0.000001 -0.049895237410056
v 1.0399378129496 0.658841 -0.049895237410056
v 1.0399378129496 0.658841 0.53932476258995
v 1.0399378129496 0.000001 0.53932476258995
v 1.0871378129496 0.658841 0.53932476258995
v 1.0871378129496 0.000001 0.53932476258995
v 1.0871378129496 0.658841 -0.63909423741005
v 1.0871378129496 0.000001 -0.63909423741005
v 1.0399378129496 0.000001 -0.63909423741005
v 1.0399378129496 0.658841 -0.63909423741005
v 1.1047178129496 0.864721 -0.049895237410056
v -0.75492318705035 0.386841 0.78774576258995
v -0.75492318705035 0.386841 0.97390576258995
v -0.66302218705035 0.386841 0.97390576258995
v -0.66302218705035 0.386841 0.78774576258995
v -0.91886218705035 -0.000219 0.62008576258995
v -0.91886218705035 -0.000219 1.1415657625899
v -0.91886218705035 0.310161 1.1415657625899
v -0.91886218705035 0.310161 0.62008576258995
v -0.66136218705035 -0.000219 1.1415657625899
v -0.66136218705035 0.310161 1.1415657625899
v -0.66136218705035 -0.000219 0.62008576258995
v -0.66136218705035 0.310161 0.62008576258995
v -0.75492318705035 0.310161 0.97390576258995
v -0.75492318705035 0.310161 0.78774576258995
v -0.66302218705035 0.310161 0.97390576258995
v -0.66302218705035 0.310161 0.78774576258995
v -0.75492318705035 0.386841 -1.3026342374101
v -0.75492318705035 0.386841 -1.1164952374101
v -0.66302218705035 0.386841 -1.1164952374101
v -0.66302218705035 0.386841 -1.3026342374101
v -0.91886218705035 -0.000219 -1.4703152374101
v -0.91886218705035 -0.000219 -0.94881423741005
v -0.91886218705035 0.310161 -0.94881423741005
v -0.91886218705035 0.310161 -1.4703152374101
v -0.66136218705035 -0.000219 -0.94881423741005
v -0.66136218705035 0.310161 -0.94881423741005
v -0.66136218705035 -0.000219 -1.4703152374101
v -0.66136218705035 0.310161 -1.4703152374101
v -0.75492318705035 0.310161 -1.1164952374101
v -0.75492318705035 0.310161 -1.3026342374101
v -0.66302218705035 0.310161 -1.1164952374101
v -0.66302218705035 0.310161 -1.3026342374101
v -0.65632318705035 0.957581 -0.049895237410056
v 1.1047178129496 0.957581 -0.049895237410056
v 0.22457781294965 0.933421 -0.099114237410056
v 0.65529781294965 0.933421 -0.099114237410056
v -0.20642218705035 0.933421 -0.099114237410056
v -0.65632318705035 0.933421 -0.099114237410056
v -0.65632318705035 0.933421 -0.00067523741005623
v -0.20642218705035 0.933421 -0.00067523741005623
v 0.22457781294965 0.933421 -0.00067523741005623
v 0.65529781294965 0.933421 -0.00067523741005623
v 1.1047178129496 0.933421 -0.00067523741005623
v 1.1047178129496 0.933421 -0.099114237410056
v 0.22457781294965 0.957581 -0.049895237410056
v 0.65529781294965 0.957581 -0.049895237410056
v -0.20642218705035 0.957581 -0.049895237410056
vt 0.0465 0.5162
vt 0.9636 0.2721
vt 0.9636 0.5162
vt 0.7820 0.5483
vt 0.9842 0.8964
vt 0.7820 0.8964
vt 0.0221 0.5162
vt 0.0465 0.2719
vt 0.0167 0.5162
vt 0.0221 0.2721
vt 0.0465 0.2721
vt 0.9636 0.5162
vt 0.0465 0.5162
vt 0.7820 0.5483
vt 0.9842 0.8964
vt 0.9842 0.5483
vt 0.0221 0.5162
vt 0.0465 0.2719
vt 0.0221 0.2721
vt 0.0167 0.5162
vt 0.0167 0.2721
vt 0.0465 0.2719
vt 0.9636 0.2719
vt 0.9844 0.5483
vt 0.9844 0.8964
vt 0.0221 0.2719
vt 0.0465 0.5163
vt 0.0167 0.5162
vt 0.0221 0.2719
vt 0.0221 0.5162
vt 0.0465 0.5162
vt 0.9636 0.2719
vt 0.0465 0.2719
vt 0.9844 0.5483
vt 0.7820 0.8964
vt 0.0221 0.2719
vt 0.0465 0.5163
vt 0.0221 0.5161
vt 0.0167 0.5162
vt 0.0221 0.2719
vt 0.0167 0.2719
vt 0.0465 0.5162
vt 0.0465 0.2721
vt 0.7820 0.5483
vt 0.9842 0.5483
vt 0.0221 0.5162
vt 0.0167 0.5162
vt 0.0167 0.2721
vt 0.0465 0.2721
vt 0.9636 0.2721
vt 0.7820 0.5483
vt 0.7820 0.8964
vt 0.0221 0.5162
vt 0.0465 0.5162
vt 0.0167 0.5162
vt 0.7820 0.5483
vt 0.9842 0.8964
vt 0.7820 0.8964
vt 0.0167 0.5162
vt 0.0221 0.2721
vt 0.0221 0.5162
vt 0.9842 0.5483
vt 0.7820 0.8964
vt 0.9842 0.8964
vt 0.0167 0.5162
vt 0.0221 0.2721
vt 0.0167 0.2721
vt 0.2701 0.1786
vt 0.0253 0.0517
vt 0.2701 0.0517
vt 0.9782 0.9209
vt 0.8291 0.9777
vt 0.8291 0.9209
vt 0.0145 0.9530
vt 0.0145 0.8567
vt 0.0145 0.5482
vt 0.2886 0.8544
vt 0.0145 0.8544
vt 0.2903 0.8567
vt 0.0215 0.2038
vt 0.4779 0.2401
vt 0.0215 0.2401
vt 0.4779 0.2038
vt 0.9884 0.2401
vt 0.0465 0.5162
vt 0.9636 0.2721
vt 0.9636 0.5162
vt 0.0465 0.2721
vt 0.7820 0.5483
vt 0.2903 0.8567
vt 0.2886 0.5483
vt 0.4779 0.2401
vt 0.9884 0.2401
vt 0.4779 0.2038
vt 0.0465 0.2721
vt 0.9636 0.5162
vt 0.0221 0.5162
vt 0.7865 0.8962
vt 0.0341 0.9815
vt 0.0145 0.9530
vt 0.0341 0.9815
vt 0.7865 0.8962
vt 0.7795 0.8878
vt 0.0144 0.9526
vt 0.7846 0.8958
vt 0.7795 0.8878
vt 0.0138 0.9443
vt 0.6898 0.7689
vt 0.6896 0.5483
vt 0.5750 0.7692
vt 0.2903 0.5483
vt 0.0253 0.0517
vt 0.2701 0.1786
vt 0.2701 0.0517
vt 0.9782 0.9209
vt 0.8291 0.9777
vt 0.8291 0.9209
vt 0.0145 0.9530
vt 0.7820 0.8964
vt 0.0145 0.8567
vt 0.0145 0.8544
vt 0.2886 0.5483
vt 0.0145 0.5482
vt 0.2903 0.8567
vt 0.4779 0.2401
vt 0.0215 0.2038
vt 0.0215 0.2401
vt 0.9884 0.2401
vt 0.4779 0.2038
vt 0.2903 0.8567
vt 0.2903 0.5483
vt 0.2886 0.5483
vt 0.4779 0.2401
vt 0.4779 0.2038
vt 0.9884 0.2401
vt 0.7865 0.8962
vt 0.0341 0.9815
vt 0.7909 0.9160
vt 0.7795 0.8878
vt 0.0144 0.9526
vt 0.0138 0.9443
vt 0.7795 0.8878
vt 0.6898 0.7689
vt 0.6896 0.5483
vt 0.5750 0.7692
vt 0.2903 0.5483
vt 0.5749 0.5482
vt 0.4806 0.1440
vt 0.3967 0.1854
vt 0.3967 0.1440
vt 0.5768 0.0229
vt 0.8525 0.1870
vt 0.5768 0.1870
vt 0.9886 0.0229
vt 0.8525 0.0229
vt 0.8525 0.0229
vt 0.5768 0.1870
vt 0.5768 0.0229
vt 0.8525 0.1870
vt 0.9886 0.0229
vt 0.5639 0.0644
vt 0.3944 0.1429
vt 0.3141 0.0644
vt 0.5639 0.1877
vt 0.4836 0.1429
vt 0.3141 0.1877
vt 0.4836 0.1869
vt 0.3944 0.1869
vt 0.4645 0.0127
vt 0.3661 0.0532
vt 0.3661 0.0127
vt 0.5131 0.0127
vt 0.4645 0.0532
vt 0.3661 0.0532
vt 0.4645 0.0127
vt 0.4645 0.0532
vt 0.3175 0.0532
vt 0.3175 0.0127
vt 0.4806 0.1440
vt 0.3967 0.1854
vt 0.3967 0.1440
vt 0.5768 0.0229
vt 0.8525 0.1870
vt 0.5768 0.1870
vt 0.9886 0.0229
vt 0.8525 0.0229
vt 0.8525 0.0229
vt 0.5768 0.1870
vt 0.5768 0.0229
vt 0.8525 0.1870
vt 0.9886 0.0229
vt 0.5639 0.0644
vt 0.3944 0.1429
vt 0.3141 0.0644
vt 0.5639 0.1877
vt 0.4836 0.1429
vt 0.3141 0.1877
vt 0.4836 0.1869
vt 0.3944 0.1869
vt 0.3661 0.0127
vt 0.4645 0.0532
vt 0.3661 0.0532
vt 0.5131 0.0127
vt 0.4645 0.0127
vt 0.3661 0.0532
vt 0.4645 0.0127
vt 0.4645 0.0532
vt 0.3175 0.0532
vt 0.3175 0.0127
vt 0.0144 0.9531
vt 0.0340 0.9816
vt 0.0144 0.9936
vt 0.0144 0.9531
vt 0.0340 0.9816
vt 0.0144 0.9936
vt 0.7865 0.8962
vt 0.0341 0.9815
vt 0.0145 0.9530
vt 0.0158 0.5160
vt 0.0095 0.2721
vt 0.0157 0.2721
vt 0.0158 0.5160
vt 0.0095 0.2721
vt 0.0157 0.2721
vt 0.0158 0.5160
vt 0.0095 0.2721
vt 0.0157 0.2721
vt 0.0375 0.9853
vt 0.0095 0.2721
vt 0.0158 0.5160
vt 0.0097 0.5161
vt 0.0095 0.2721
vt 0.0158 0.5160
vt 0.0097 0.5161
vt 0.0095 0.2721
vt 0.0158 0.5160
vt 0.0097 0.5161
vt 0.0158 0.5160
vt 0.0095 0.2721
vt 0.0157 0.2721
vt 0.0375 0.9853
vt 0.0095 0.2721
vt 0.0158 0.5160
vt 0.0097 0.5161
vt 0.9653 0.5161
vt 0.9949 0.2719
vt 0.9653 0.2719
vt 0.9653 0.2719
vt 0.9949 0.5161
vt 0.9653 0.2719
vt 0.9949 0.5161
vt 0.9653 0.5161
vt 0.9653 0.5161
vt 0.9949 0.2719
vt 0.9653 0.2719
vt 0.9653 0.5161
vt 0.9949 0.2719
vt 0.9653 0.2719
vt 0.9653 0.2719
vt 0.9653 0.2719
vt 0.9949 0.5161
vt 0.9653 0.5161
vt 0.9653 0.5161
vt 0.9949 0.2719
vt 0.9653 0.2719
vt 0.0375 0.9853
vt 0.0340 0.9816
vt 0.0375 0.9853
vt 0.0340 0.9816
vt 0.9636 0.2721
vt 0.0465 0.5162
vt 0.0221 0.5161
vt 0.0167 0.2719
vt 0.9844 0.8964
vt 0.0465 0.2719
vt 0.0221 0.5162
vt 0.9636 0.5162
vt 0.9842 0.5483
vt 0.0167 0.2721
vt 0.0253 0.1786
vt 0.9782 0.9777
vt 0.2886 0.5483
vt 0.9884 0.2038
vt 0.2903 0.5483
vt 0.2886 0.8544
vt 0.9884 0.2038
vt 0.9636 0.2721
vt 0.0465 0.5162
vt 0.7909 0.9160
vt 0.7909 0.9160
vt 0.7846 0.8958
vt 0.5749 0.5482
vt 0.0253 0.1786
vt 0.9782 0.9777
vt 0.2886 0.8544
vt 0.9884 0.2038
vt 0.2886 0.8544
vt 0.9884 0.2038
vt 0.7846 0.8958
vt 0.7846 0.8958
vt 0.4806 0.1854
vt 0.9886 0.1870
vt 0.8525 0.1870
vt 0.9886 0.1870
vt 0.5131 0.0532
vt 0.3661 0.0127
vt 0.4806 0.1854
vt 0.9886 0.1870
vt 0.8525 0.1870
vt 0.9886 0.1870
vt 0.5131 0.0532
vt 0.3661 0.0127
vt 0.7909 0.9160
vt 0.0097 0.5161
vt 0.0097 0.5161
vt 0.0097 0.5161
vt 0.0157 0.2721
vt 0.0157 0.2721
vt 0.0157 0.2721
vt 0.0097 0.5161
vt 0.0157 0.2721
vn 0.0000 0.9963 0.0863
vn 0.0000 0.0000 1.0000
vn 0.0000 -0.2194 0.9756
vn 0.0000 -0.9989 -0.0478
vn 0.0000 -0.9988 -0.0481
vn 0.0000 0.9963 -0.0863
vn 0.0000 0.0000 -1.0000
vn 0.0000 -0.2189 -0.9757
vn 0.0000 -0.9989 0.0478
vn 0.0091 -0.9982 -0.0593
vn 0.0091 -0.9982 0.0592
vn 0.0143 -0.9978 0.0652
vn -0.0091 -0.9982 -0.0593
vn -0.0141 -0.9978 -0.0653
vn -0.0092 -0.9982 0.0592
vn -1.0000 0.0000 0.0000
vn 0.0000 -1.0000 -0.0000
vn 0.0069 -1.0000 0.0001
vn -0.0143 -0.9978 0.0652
vn 0.0071 -1.0000 0.0001
vn 1.0000 0.0000 0.0000
vn -0.0069 -1.0000 0.0001
vn -0.0071 -1.0000 0.0001
vn 0.0000 1.0000 0.0000
vn 0.0000 -0.6807 -0.7325
vn 0.0000 -0.6807 0.7325
vn 1.0000 -0.0001 0.0000
vn 0.0000 0.8977 -0.4406
vn 0.0000 0.8977 0.4406
vn 0.0142 -0.9978 -0.0653
usemtl building_16.001
s 1
f 2/1/1 4/2/1 1/3/1
f 6/4/2 8/5/2 5/6/2
f 9/7/3 3/8/3 2/1/3
f 5/9/4 10/10/5 9/7/4
f 12/11/6 14/12/6 11/13/6
f 16/14/7 18/15/7 15/16/7
f 20/17/8 11/18/8 19/19/8
f 17/20/9 19/19/9 18/21/9
f 22/22/1 1/3/1 21/23/1
f 24/24/2 5/6/2 23/25/2
f 25/26/3 2/27/3 22/22/3
f 23/28/5 9/29/4 25/30/5
f 26/31/6 13/32/6 12/33/6
f 28/34/7 17/35/7 16/14/7
f 30/36/8 12/37/8 20/38/8
f 29/39/9 20/40/9 17/41/9
f 31/42/1 4/2/1 3/43/1
f 33/44/2 8/5/2 7/45/2
f 35/46/3 3/43/3 10/10/3
f 34/47/10 10/10/5 8/48/5
f 37/49/6 14/12/6 36/50/6
f 39/51/7 18/15/7 38/52/7
f 40/53/8 11/13/8 37/54/8
f 38/55/11 19/19/9 40/53/12
f 42/56/2 23/57/2 41/58/2
f 41/59/13 25/60/5 43/61/14
f 28/62/7 45/63/7 29/64/7
f 45/65/15 30/66/9 29/67/9
f 48/68/16 50/69/16 47/70/16
f 52/71/16 54/72/16 51/73/16
f 55/74/16 56/75/16 41/58/16
f 57/76/16 59/77/16 60/78/16
f 41/58/16 56/75/16 61/79/16
f 60/80/17 61/81/17 56/82/17
f 59/83/7 62/84/7 61/81/7
f 64/85/1 21/86/1 63/87/1
f 43/61/3 22/88/3 64/85/3
f 45/63/16 56/75/16 55/74/16
f 44/89/16 66/90/16 45/63/16
f 60/78/16 68/91/16 57/76/16
f 45/63/16 66/90/16 56/75/16
f 66/92/17 60/80/17 56/82/17
f 65/93/2 67/94/2 66/92/2
f 69/95/6 27/96/6 26/31/6
f 46/97/8 26/31/8 30/66/8
f 43/98/16 63/99/16 71/100/16
f 70/101/16 46/102/16 71/100/16
f 45/103/15 71/104/18 46/105/19
f 41/106/13 71/104/18 55/107/20
f 42/56/16 49/108/16 48/109/16
f 50/110/16 41/58/16 61/79/16
f 62/111/16 50/110/16 61/79/16
f 73/112/21 75/113/21 72/114/21
f 76/115/21 78/116/21 79/117/21
f 80/118/21 34/119/21 81/120/21
f 83/121/21 85/122/21 82/123/21
f 34/119/21 86/124/21 81/120/21
f 86/125/17 83/126/17 81/127/17
f 87/128/7 84/129/7 86/125/7
f 38/52/21 80/118/21 81/120/21
f 39/51/21 88/130/21 89/131/21
f 90/132/21 83/121/21 82/123/21
f 38/52/21 81/120/21 88/130/21
f 83/126/17 88/133/17 81/127/17
f 91/134/2 89/135/2 88/133/2
f 35/136/21 32/137/21 31/138/21
f 38/139/11 92/140/22 80/141/23
f 92/140/22 34/142/10 80/141/23
f 74/143/21 33/44/21 75/144/21
f 34/119/21 73/145/21 86/124/21
f 87/146/21 73/145/21 72/147/21
f 94/148/24 96/149/24 93/150/24
f 97/151/16 99/152/16 100/153/16
f 101/154/2 99/152/2 98/155/2
f 103/156/21 102/157/21 101/158/21
f 97/159/7 104/160/7 103/156/7
f 99/161/24 106/162/24 100/163/24
f 102/164/24 105/165/24 99/161/24
f 104/166/24 107/167/24 102/164/24
f 104/166/24 106/162/24 108/168/24
f 105/169/16 93/170/16 106/171/16
f 107/172/2 94/173/2 105/169/2
f 108/174/21 95/175/21 107/176/21
f 106/171/7 96/177/7 108/178/7
f 110/179/24 112/180/24 109/181/24
f 113/182/16 115/183/16 116/184/16
f 117/185/2 115/183/2 114/186/2
f 119/187/21 118/188/21 117/189/21
f 113/190/7 120/191/7 119/187/7
f 115/192/24 122/193/24 116/194/24
f 118/195/24 121/196/24 115/192/24
f 120/197/24 123/198/24 118/195/24
f 120/197/24 122/193/24 124/199/24
f 122/200/16 110/201/16 109/202/16
f 123/203/2 110/201/2 121/204/2
f 124/205/21 111/206/21 123/207/21
f 122/200/7 112/208/7 124/209/7
f 71/210/16 63/211/16 125/212/16
f 92/213/21 36/214/21 126/215/21
f 40/216/21 36/217/21 92/218/21
f 13/219/25 128/220/25 14/221/25
f 27/222/25 127/223/25 13/224/25
f 70/225/25 129/226/25 27/227/25
f 63/211/16 131/228/16 125/212/16
f 21/229/26 131/230/26 63/231/26
f 1/232/26 132/233/26 21/234/26
f 4/235/26 133/236/26 1/237/26
f 32/238/26 134/239/26 4/240/26
f 36/214/21 136/241/27 126/215/21
f 14/242/25 136/243/25 36/244/25
f 127/245/28 138/246/24 128/247/28
f 129/248/28 137/249/24 127/245/28
f 130/250/28 139/251/24 129/252/28
f 132/253/29 125/254/24 131/255/29
f 133/256/29 139/257/24 132/258/29
f 134/259/29 137/249/24 133/256/29
f 135/260/29 138/261/24 134/262/29
f 128/263/28 126/264/24 136/265/28
f 125/212/16 130/266/16 70/267/16
f 125/212/16 70/267/16 71/210/16
f 126/215/21 135/268/21 32/269/21
f 126/215/21 32/269/21 92/213/21
f 2/1/1 3/43/1 4/2/1
f 6/4/2 7/45/2 8/5/2
f 9/7/3 10/10/3 3/8/3
f 5/9/4 8/48/5 10/10/5
f 12/11/6 13/270/6 14/12/6
f 16/14/7 17/35/7 18/15/7
f 20/17/8 12/271/8 11/18/8
f 17/20/9 20/17/9 19/19/9
f 22/22/1 2/1/1 1/3/1
f 24/24/2 6/4/2 5/6/2
f 25/26/3 9/272/3 2/27/3
f 23/28/5 5/273/4 9/29/4
f 26/31/6 27/96/6 13/32/6
f 28/34/7 29/274/7 17/35/7
f 30/36/8 26/275/8 12/37/8
f 29/39/9 30/276/9 20/40/9
f 31/42/1 32/277/1 4/2/1
f 33/44/2 34/119/2 8/5/2
f 35/46/3 31/42/3 3/43/3
f 34/47/10 35/46/30 10/10/5
f 37/49/6 11/13/6 14/12/6
f 39/51/7 15/16/7 18/15/7
f 40/53/8 19/19/8 11/13/8
f 38/55/11 18/21/9 19/19/9
f 42/56/2 24/278/2 23/57/2
f 41/59/13 23/279/5 25/60/5
f 28/62/7 44/89/7 45/63/7
f 45/65/15 46/97/19 30/66/9
f 48/68/16 49/280/16 50/69/16
f 52/71/16 53/281/16 54/72/16
f 57/76/16 58/282/16 59/77/16
f 60/80/17 59/83/17 61/81/17
f 59/83/7 58/283/7 62/84/7
f 64/85/1 22/88/1 21/86/1
f 43/61/3 25/60/3 22/88/3
f 44/89/16 65/284/16 66/90/16
f 60/78/16 67/285/16 68/91/16
f 66/92/17 67/94/17 60/80/17
f 65/93/2 68/286/2 67/94/2
f 69/95/6 70/287/6 27/96/6
f 46/97/8 69/288/8 26/31/8
f 43/98/16 64/289/16 63/99/16
f 70/101/16 69/290/16 46/102/16
f 45/103/15 55/107/20 71/104/18
f 41/106/13 43/291/14 71/104/18
f 42/56/16 41/58/16 49/108/16
f 50/110/16 49/108/16 41/58/16
f 62/111/16 47/292/16 50/110/16
f 73/112/21 74/293/21 75/113/21
f 76/115/21 77/294/21 78/116/21
f 83/121/21 84/295/21 85/122/21
f 86/125/17 84/129/17 83/126/17
f 87/128/7 85/296/7 84/129/7
f 39/51/21 38/52/21 88/130/21
f 90/132/21 91/297/21 83/121/21
f 83/126/17 91/134/17 88/133/17
f 91/134/2 90/298/2 89/135/2
f 35/136/21 92/218/21 32/137/21
f 38/139/11 40/299/12 92/140/22
f 92/140/22 35/300/30 34/142/10
f 74/143/21 34/119/21 33/44/21
f 34/119/21 74/143/21 73/145/21
f 87/146/21 86/124/21 73/145/21
f 94/148/24 95/301/24 96/149/24
f 97/151/16 98/155/16 99/152/16
f 101/154/2 102/302/2 99/152/2
f 103/156/21 104/303/21 102/157/21
f 97/159/7 100/304/7 104/160/7
f 99/161/24 105/165/24 106/162/24
f 102/164/24 107/167/24 105/165/24
f 104/166/24 108/168/24 107/167/24
f 104/166/24 100/163/24 106/162/24
f 105/169/16 94/173/16 93/170/16
f 107/172/2 95/305/2 94/173/2
f 108/174/21 96/306/21 95/175/21
f 106/171/7 93/170/7 96/177/7
f 110/179/24 111/307/24 112/180/24
f 113/182/16 114/186/16 115/183/16
f 117/185/2 118/308/2 115/183/2
f 119/187/21 120/309/21 118/188/21
f 113/190/7 116/310/7 120/191/7
f 115/192/24 121/196/24 122/193/24
f 118/195/24 123/198/24 121/196/24
f 120/197/24 124/199/24 123/198/24
f 120/197/24 116/194/24 122/193/24
f 122/200/16 121/204/16 110/201/16
f 123/203/2 111/311/2 110/201/2
f 124/205/21 112/312/21 111/206/21
f 122/200/7 109/202/7 112/208/7
f 40/216/21 37/313/21 36/217/21
f 13/219/25 127/314/25 128/220/25
f 27/222/25 129/315/25 127/223/25
f 70/225/25 130/316/25 129/226/25
f 21/229/26 132/317/26 131/230/26
f 1/232/26 133/318/26 132/233/26
f 4/235/26 134/319/26 133/236/26
f 32/238/26 135/320/26 134/239/26
f 14/242/25 128/321/25 136/243/25
f 127/245/28 137/249/24 138/246/24
f 129/248/28 139/257/24 137/249/24
f 130/250/28 125/254/24 139/251/24
f 132/253/29 139/251/24 125/254/24
f 133/256/29 137/249/24 139/257/24
f 134/259/29 138/246/24 137/249/24
f 135/260/29 126/264/24 138/261/24
f 128/263/28 138/261/24 126/264/24



