# Blender v2.77 (sub 0) OBJ File: 'Roads.blend'
# www.blender.org
mtllib road-corner3.mtl
o Plane.009
v -6.007843 -0.197413 10.266262
v -18.007843 -0.197413 10.266262
v -12.007843 -0.197413 10.266262
v -6.007843 0.155031 10.266262
v -11.633339 0.155031 10.266262
v -11.961405 0.155031 10.266262
v -12.007843 0.127146 10.266262
v -6.007860 -0.197413 10.266521
v -17.825554 -0.197413 12.350301
v -11.916707 -0.197413 11.308411
v -6.007860 0.155031 10.266521
v -11.547893 0.155031 11.243378
v -11.870974 0.155031 11.300346
v -11.916707 0.127146 11.308411
v -6.007833 -0.197413 10.266779
v -17.284143 -0.197413 14.371024
v -11.645988 -0.197413 12.318901
v -6.007833 0.155031 10.266779
v -11.294069 0.155031 12.190813
v -11.602349 0.155031 12.303019
v -11.645988 0.127146 12.318901
v -6.007760 -0.197413 10.267030
v -16.400063 -0.197413 16.267033
v -11.203913 -0.197413 13.267031
v -6.007760 0.155031 10.267030
v -10.879581 0.155031 13.079779
v -11.163694 0.155031 13.243811
v -11.203913 0.127146 13.267031
v -6.007646 -0.197413 10.267263
v -15.200175 -0.197413 17.980719
v -10.603910 -0.197413 14.123991
v -6.007646 0.155031 10.267263
v -10.317024 0.155031 13.883265
v -10.568336 0.155031 14.094139
v -10.603910 0.127146 14.123991
v -6.007493 -0.197413 10.267473
v -13.720939 -0.197413 19.460011
v -9.864216 -0.197413 14.863743
v -6.007493 0.155031 10.267473
v -9.623489 0.155031 14.576855
v -9.834365 0.155031 14.828165
v -9.864216 0.127146 14.863743
v -6.007305 -0.197413 10.267653
v -12.007298 -0.197413 20.659960
v -9.007301 -0.197413 15.463808
v -6.007305 0.155031 10.267653
v -8.820050 0.155031 15.139478
v -8.984082 0.155031 15.423589
v -9.007301 0.127146 15.463808
v -6.007090 -0.197413 10.267797
v -10.111322 -0.197413 21.544109
v -8.059205 -0.197413 15.905956
v -6.007090 0.155031 10.267797
v -7.931118 0.155031 15.554037
v -8.043324 0.155031 15.862315
v -8.059205 0.127146 15.905956
v -6.006852 -0.197413 10.267904
v -8.090620 -0.197413 22.085598
v -7.048735 -0.197413 16.176752
v -6.006852 0.155031 10.267904
v -6.983704 0.155031 15.807938
v -7.040672 0.155031 16.131016
v -7.048735 0.127146 16.176752
v -6.006598 -0.197413 10.267967
v -6.006589 -0.197413 22.267963
v -6.006593 -0.197413 16.267967
v -6.006598 0.155031 10.267967
v -6.006593 0.155031 15.893461
v -6.006595 0.155031 16.221525
v -6.006593 0.127146 16.267967
vt 1.6123 -0.0007
vt 1.6123 1.0004
vt 1.3617 1.0004
vt 1.3617 -0.0007
vt 1.1105 1.0004
vt 1.1105 -0.0007
vt 0.8590 1.0004
vt 0.8590 -0.0007
vt 0.6072 1.0004
vt 0.6072 -0.0007
vt 0.3552 1.0004
vt 0.3552 -0.0007
vt 0.1033 1.0004
vt 0.1033 -0.0007
vt -0.1484 1.0004
vt -0.1484 -0.0007
vt -0.3998 1.0004
vt -0.3998 -0.0007
vt -0.6508 1.0004
vt -0.6507 -0.0007
vt 1.6295 -0.0005
vt 1.6295 0.9875
vt 1.4131 0.9875
vt 1.4131 -0.0005
vt 1.7376 0.0001
vt 1.7376 0.9999
vt 1.4584 0.9999
vt 1.4584 0.0001
vt 1.1792 1.0000
vt 1.1792 0.0001
vt 1.1683 0.9875
vt 1.1684 -0.0005
vt 0.9028 0.9875
vt 0.9028 -0.0005
vt 0.9000 1.0000
vt 0.9000 0.0001
vt 0.6245 0.9875
vt 0.6245 -0.0005
vt 0.6208 1.0000
vt 0.6208 0.0001
vt 0.3416 1.0000
vt 0.3416 0.0001
vt 0.3419 0.9875
vt 0.3419 -0.0005
vt 0.0634 0.9875
vt 0.0635 -0.0005
vt 0.0623 1.0000
vt 0.0623 0.0001
vt -0.2169 1.0000
vt -0.2169 0.0001
vt -0.2023 0.9875
vt -0.2023 -0.0005
vt -0.4961 1.0000
vt -0.4961 0.0000
vt -0.4474 0.9875
vt -0.4473 -0.0005
vt -0.6642 0.9875
vt -0.6642 -0.0005
vt -0.7753 0.9999
vt -0.7753 0.0000
vt 1.1705 0.8033
vt -0.1970 0.8033
vt -0.1762 0.5602
vt 1.1705 0.8032
vt -0.1145 0.3245
vt 1.1706 0.8031
vt -0.0138 0.1033
vt 1.1706 0.8031
vt 0.1230 -0.0966
vt 1.1706 0.8030
vt 0.2916 -0.2692
vt 1.1706 0.8030
vt 0.4869 -0.4091
vt 1.1707 0.8029
vt 0.7030 -0.5123
vt 1.1707 0.8029
vt 0.9333 -0.5754
vt 1.1708 0.8029
vt 1.1709 -0.5967
vt 1.1709 0.8028
vt 0.9887 1.0000
vt 0.4343 1.0000
vt 0.4343 0.8794
vt 0.9887 0.8794
vt 0.4343 0.7554
vt 0.9887 0.7554
vt 0.4343 0.6395
vt 0.9887 0.6395
vt 0.4343 0.5354
vt 0.9887 0.5354
vt 0.4343 0.4349
vt 0.9887 0.4349
vt 0.4343 0.3425
vt 0.9887 0.3425
vt 0.4343 0.2234
vt 0.9887 0.2234
vt 0.4343 0.1065
vt 0.9887 0.1065
vt 0.4343 -0.0020
vt 0.9887 -0.0020
vt 0.0000 0.0000
vt 0.0000 0.0000
vt 0.0000 0.0000
vt 0.0000 0.0000
vt 0.0000 0.0000
vt 0.0000 0.0000
vt 0.0000 0.0000
vt 0.0000 0.0000
vt 0.0000 0.0000
vt 0.0000 0.0000
vt 0.0000 0.0000
vt 0.0000 0.0000
vt 0.0000 0.0000
vt 0.0000 0.0000
vt 0.0000 0.0000
vt 0.0000 0.0000
vt 0.0000 0.0000
vt 0.0000 0.0000
vt 0.0000 0.0000
vt 0.0000 0.0000
vn -0.5143 0.8564 0.0450
vn -0.4987 0.8564 0.1336
vn -0.4679 0.8564 0.2182
vn -0.4229 0.8564 0.2961
vn -0.3650 0.8565 0.3650
vn -0.2961 0.8565 0.4229
vn -0.2182 0.8565 0.4678
vn -0.1336 0.8565 0.4986
vn -0.0450 0.8565 0.5142
vn 0.0000 1.0000 0.0000
vn -0.9962 0.0000 0.0871
vn -0.9659 0.0000 0.2588
vn -0.9063 0.0000 0.4226
vn -0.8192 0.0000 0.5735
vn -0.7071 0.0000 0.7071
vn -0.5736 0.0000 0.8191
vn -0.4227 0.0000 0.9063
vn -0.2589 0.0000 0.9659
vn -0.0872 0.0000 0.9962
vn 0.9978 0.0000 0.0663
vn 0.9947 0.0000 -0.1028
vn 0.9596 0.0000 -0.2815
vn 0.8984 0.0000 -0.4392
vn 0.8086 0.0000 -0.5884
vn 0.6917 0.0000 -0.7222
vn 0.5558 0.0000 -0.8313
vn 0.4104 0.0000 -0.9119
vn 0.2407 0.0000 -0.9706
usemtl None
s off
f 6/1/1 7/2/1 14/3/1 13/4/1
f 13/4/2 14/3/2 21/5/2 20/6/2
f 20/6/3 21/5/3 28/7/3 27/8/3
f 27/8/4 28/7/4 35/9/4 34/10/4
f 34/10/5 35/9/5 42/11/5 41/12/5
f 41/12/6 42/11/6 49/13/6 48/14/6
f 48/14/7 49/13/7 56/15/7 55/16/7
f 55/16/8 56/15/8 63/17/8 62/18/8
f 62/18/9 63/17/9 70/19/9 69/20/9
usemtl None_CordonTop.jpg.001
f 5/21/10 6/22/10 13/23/10 12/24/10
f 7/25/11 3/26/11 10/27/11 14/28/11
f 14/28/12 10/27/12 17/29/12 21/30/12
f 12/24/10 13/23/10 20/31/10 19/32/10
f 19/32/10 20/31/10 27/33/10 26/34/10
f 21/30/13 17/29/13 24/35/13 28/36/13
f 26/34/10 27/33/10 34/37/10 33/38/10
f 28/36/14 24/35/14 31/39/14 35/40/14
f 35/40/15 31/39/15 38/41/15 42/42/15
f 33/38/10 34/37/10 41/43/10 40/44/10
f 40/44/10 41/43/10 48/45/10 47/46/10
f 42/42/16 38/41/16 45/47/16 49/48/16
f 49/48/17 45/47/17 52/49/17 56/50/17
f 47/46/10 48/45/10 55/51/10 54/52/10
f 56/50/18 52/49/18 59/53/18 63/54/18
f 54/52/10 55/51/10 62/55/10 61/56/10
f 61/56/10 62/55/10 69/57/10 68/58/10
f 63/54/19 59/53/19 66/59/19 70/60/19
usemtl None_FloorsRegular0277_1_S.jpg.001
f 4/61/10 5/62/10 12/63/10 11/64/10
f 11/64/10 12/63/10 19/65/10 18/66/10
f 18/66/10 19/65/10 26/67/10 25/68/10
f 25/68/10 26/67/10 33/69/10 32/70/10
f 32/70/10 33/69/10 40/71/10 39/72/10
f 39/72/10 40/71/10 47/73/10 46/74/10
f 46/74/10 47/73/10 54/75/10 53/76/10
f 53/76/10 54/75/10 61/77/10 60/78/10
f 60/78/10 61/77/10 68/79/10 67/80/10
usemtl None_Roads0069_9_S.jpg
f 3/81/10 2/82/10 9/83/10 10/84/10
f 10/84/10 9/83/10 16/85/10 17/86/10
f 17/86/10 16/85/10 23/87/10 24/88/10
f 24/88/10 23/87/10 30/89/10 31/90/10
f 31/90/10 30/89/10 37/91/10 38/92/10
f 38/92/10 37/91/10 44/93/10 45/94/10
f 45/94/10 44/93/10 51/95/10 52/96/10
f 52/96/10 51/95/10 58/97/10 59/98/10
f 59/98/10 58/97/10 65/99/10 66/100/10
usemtl None_NONE
f 1/101/20 4/102/20 11/103/20 8/104/20
f 8/104/21 11/103/21 18/105/21 15/106/21
f 15/106/22 18/105/22 25/107/22 22/108/22
f 22/108/23 25/107/23 32/109/23 29/110/23
f 29/110/24 32/109/24 39/111/24 36/112/24
f 36/112/25 39/111/25 46/113/25 43/114/25
f 43/114/26 46/113/26 53/115/26 50/116/26
f 50/116/27 53/115/27 60/117/27 57/118/27
f 57/118/28 60/117/28 67/119/28 64/120/28
