# Blender v2.77 (sub 0) OBJ File: 'Roads.blend'
# www.blender.org
mtllib road-corner4.mtl
o Plane.021
v -6.099145 0.000000 -18.002722
v -6.099146 0.000000 -6.002722
v -6.099145 0.000000 -12.002723
v -6.099145 0.352445 -18.002722
v -6.099145 0.352445 -12.377227
v -6.099145 0.352445 -12.049161
v -6.099145 0.324559 -12.002723
v -6.099404 0.000000 -18.002705
v -8.183185 0.000000 -6.185013
v -7.141294 0.000000 -12.093860
v -6.099404 0.352445 -18.002705
v -7.076262 0.352445 -12.462674
v -7.133231 0.352445 -12.139593
v -7.141294 0.324559 -12.093860
v -6.099663 0.000000 -18.002733
v -10.203908 0.000000 -6.726423
v -8.151785 0.000000 -12.364578
v -6.099663 0.352445 -18.002733
v -8.023697 0.135387 -12.716496
v -8.135902 0.078485 -12.408217
v -8.151785 0.050600 -12.364578
v -6.099913 0.000000 -18.002806
v -12.099916 0.000000 -7.610503
v -9.099915 0.000000 -12.806654
v -6.099913 0.352445 -18.002806
v -8.912663 0.135387 -13.130984
v -9.076694 0.078485 -12.846872
v -9.099915 0.050600 -12.806654
v -6.100146 0.000000 -18.002920
v -13.813602 0.000000 -8.810390
v -9.956875 0.000000 -13.406655
v -6.100146 0.352445 -18.002920
v -9.716148 0.135387 -13.693542
v -9.927023 0.078485 -13.442230
v -9.956875 0.050600 -13.406655
v -6.100357 0.000000 -18.003073
v -15.292894 0.000000 -10.289628
v -10.696626 0.000000 -14.146351
v -6.100357 0.352445 -18.003073
v -10.409739 0.135387 -14.387076
v -10.661049 0.078485 -14.176201
v -10.696626 0.050600 -14.146351
v -6.100537 0.000000 -18.003260
v -16.492844 0.000000 -12.003268
v -11.296691 0.000000 -15.003265
v -6.100537 0.352445 -18.003260
v -10.972362 0.135387 -15.190516
v -11.256473 0.078485 -15.026484
v -11.296691 0.050600 -15.003265
v -6.100681 0.000000 -18.003477
v -17.376995 0.000000 -13.899244
v -11.738839 0.000000 -15.951361
v -6.100681 0.352445 -18.003477
v -11.386921 0.135387 -16.079449
v -11.695199 0.078485 -15.967243
v -11.738839 0.050600 -15.951361
v -6.100787 0.000000 -18.003714
v -17.918480 0.000000 -15.919947
v -12.009635 0.000000 -16.961830
v -6.100787 0.352445 -18.003714
v -11.640821 0.352445 -17.026863
v -11.963899 0.352445 -16.969894
v -12.009635 0.324559 -16.961830
v -6.100850 0.000000 -18.003967
v -18.100847 0.000000 -18.003979
v -12.100850 0.000000 -18.003973
v -6.100850 0.352445 -18.003967
v -11.726345 0.352445 -18.003973
v -12.054409 0.352445 -18.003971
v -12.100850 0.324559 -18.003973
vt 2.0317 0.3263
vt 1.5894 0.3263
vt 1.5894 0.6734
vt 2.0317 0.6734
vt 2.1440 0.0001
vt 1.6689 0.0001
vt 1.6689 1.0000
vt 2.1440 0.9999
vt 2.1222 -0.0005
vt 1.6912 -0.0005
vt 1.6912 0.9875
vt 2.1221 0.9875
vt 1.2237 -0.0005
vt 1.2236 0.9875
vt 1.1465 0.3263
vt 1.1465 0.6734
vt 1.1938 0.0001
vt 1.1938 1.0000
vt 0.7336 -0.0005
vt 0.7336 0.9875
vt 0.7030 0.3263
vt 0.7030 0.6734
vt 0.7187 0.0001
vt 0.7187 1.0000
vt 0.2594 0.3263
vt 0.2594 0.6734
vt 0.2436 0.0001
vt 0.2436 1.0000
vt 0.2359 -0.0005
vt 0.2359 0.9875
vt -0.2544 -0.0005
vt -0.2544 0.9875
vt -0.1841 0.3263
vt -0.1842 0.6734
vt -0.2315 0.0001
vt -0.2315 1.0000
vt -0.6274 0.3263
vt -0.6275 0.6734
vt -0.7066 0.0001
vt -0.7066 1.0000
vt -0.7224 -0.0005
vt -0.7224 0.9875
vt -1.0702 0.3263
vt -1.0702 0.6734
vt -1.1817 0.0000
vt -1.1817 1.0000
vt -1.1538 -0.0005
vt -1.1539 0.9875
vt 1.6123 -0.0007
vt 1.3617 -0.0007
vt 1.3617 1.0004
vt 1.6123 1.0004
vt -0.3998 -0.0007
vt -0.6507 -0.0007
vt -0.6508 1.0004
vt -0.3998 1.0004
vt 1.6295 -0.0005
vt 1.4131 -0.0005
vt 1.4131 0.9875
vt 1.6295 0.9875
vt 1.7376 0.0001
vt 1.4584 0.0001
vt 1.4584 0.9999
vt 1.7376 0.9999
vt -0.4473 -0.0005
vt -0.6642 -0.0005
vt -0.6642 0.9875
vt -0.4474 0.9875
vt -0.4961 0.0000
vt -0.7753 0.0000
vt -0.7753 0.9999
vt -0.4961 1.0000
vt 0.0002 1.0000
vt 0.0002 1.0000
vt 0.9542 0.6527
vt 1.0000 0.8237
vt 0.0002 0.9999
vt 0.8794 0.4923
vt 0.0001 0.9999
vt 0.7779 0.3473
vt 0.0001 0.9998
vt 0.6527 0.2222
vt 0.0001 0.9998
vt 0.5077 0.1206
vt 0.0000 0.9998
vt 0.3473 0.0458
vt 0.0000 0.9998
vt 0.1763 0.0000
vt 1.1705 0.8033
vt 1.1705 0.8032
vt -0.1762 0.5602
vt -0.1970 0.8033
vt 1.1708 0.8029
vt 1.1709 0.8028
vt 1.1709 -0.5967
vt 0.9333 -0.5754
vt 0.9887 1.0000
vt 0.9887 0.8794
vt 0.4343 0.8794
vt 0.4343 1.0000
vt 0.9887 0.7554
vt 0.4343 0.7554
vt 0.9887 0.6395
vt 0.4343 0.6395
vt 0.9887 0.5354
vt 0.4343 0.5354
vt 0.9887 0.4349
vt 0.4343 0.4349
vt 0.9887 0.3425
vt 0.4343 0.3425
vt 0.9887 0.2234
vt 0.4343 0.2234
vt 0.9887 0.1065
vt 0.4343 0.1065
vt 0.9887 -0.0020
vt 0.4343 -0.0020
vt 0.0000 0.0000
vt 0.0000 0.0000
vt 0.0000 0.0000
vt 0.0000 0.0000
vt 0.0000 0.0000
vt 0.0000 0.0000
vt 0.0000 0.0000
vt 0.0000 0.0000
vt 0.0000 0.0000
vt 0.0000 0.0000
vt 0.0000 0.0000
vt 0.0000 0.0000
vt 0.0000 0.0000
vt 0.0000 0.0000
vt 0.0000 0.0000
vt 0.0000 0.0000
vt 0.0000 0.0000
vt 0.0000 0.0000
vt 0.0000 0.0000
vt 0.0000 0.0000
vn -0.3425 0.8355 0.4296
vn -0.2588 0.0000 0.9659
vn -0.2493 0.9682 0.0205
vn -0.0725 0.9852 0.1555
vn -0.2182 0.8564 0.4679
vn -0.4226 0.0000 0.9063
vn -0.0984 0.9852 0.1405
vn -0.2961 0.8565 0.4229
vn -0.5735 0.0000 0.8192
vn -0.3650 0.8565 0.3650
vn -0.7071 0.0000 0.7071
vn -0.1213 0.9852 0.1213
vn -0.1405 0.9852 0.0984
vn -0.4229 0.8564 0.2961
vn -0.8191 0.0000 0.5736
vn -0.4679 0.8564 0.2182
vn -0.9063 0.0000 0.4227
vn -0.1555 0.9852 0.0725
vn -0.4296 0.8355 0.3425
vn -0.9659 0.0000 0.2589
vn -0.0205 0.9682 0.2493
vn -0.0450 0.8564 0.5143
vn -0.5142 0.8565 0.0450
vn -0.0000 1.0000 0.0000
vn -0.0871 0.0000 0.9962
vn -0.9962 0.0000 0.0872
vn -0.2135 0.9762 -0.0376
vn -0.0164 0.9993 0.0351
vn -0.0222 0.9993 0.0317
vn -0.0274 0.9993 0.0274
vn -0.0317 0.9993 0.0222
vn -0.0351 0.9993 0.0164
vn 0.0376 0.9762 0.2135
vn -0.0645 0.0000 -0.9979
vn 0.1091 0.0000 -0.9940
vn 0.2802 0.0000 -0.9600
vn 0.4381 0.0000 -0.8989
vn 0.5880 0.0000 -0.8088
vn 0.7194 0.0000 -0.6945
vn 0.8333 0.0000 -0.5528
vn 0.9129 0.0000 -0.4082
vn 0.9704 0.0000 -0.2414
usemtl None
s off
f 13/1/1 20/2/1 21/3/1 14/4/1
f 14/5/2 21/6/2 17/7/2 10/8/2
f 12/9/3 19/10/3 20/11/3 13/12/3
f 19/10/4 26/13/4 27/14/4 20/11/4
f 20/2/5 27/15/5 28/16/5 21/3/5
f 21/6/6 28/17/6 24/18/6 17/7/6
f 26/13/7 33/19/7 34/20/7 27/14/7
f 27/15/8 34/21/8 35/22/8 28/16/8
f 28/17/9 35/23/9 31/24/9 24/18/9
f 34/21/10 41/25/10 42/26/10 35/22/10
f 35/23/11 42/27/11 38/28/11 31/24/11
f 33/19/12 40/29/12 41/30/12 34/20/12
f 40/29/13 47/31/13 48/32/13 41/30/13
f 41/25/14 48/33/14 49/34/14 42/26/14
f 42/27/15 49/35/15 45/36/15 38/28/15
f 48/33/16 55/37/16 56/38/16 49/34/16
f 49/35/17 56/39/17 52/40/17 45/36/17
f 47/31/18 54/41/18 55/42/18 48/32/18
f 55/37/19 62/43/19 63/44/19 56/38/19
f 56/39/20 63/45/20 59/46/20 52/40/20
f 54/41/21 61/47/21 62/48/21 55/42/21
usemtl None_CordonMedium.jpg.001
f 6/49/22 13/50/22 14/51/22 7/52/22
f 62/53/23 69/54/23 70/55/23 63/56/23
usemtl None_CordonTop.jpg.001
f 5/57/24 12/58/24 13/59/24 6/60/24
f 7/61/25 14/62/25 10/63/25 3/64/25
f 61/65/24 68/66/24 69/67/24 62/68/24
f 63/69/26 70/70/26 66/71/26 59/72/26
usemtl None_EsquinaTextura.png
f 11/73/27 18/74/27 19/75/27 12/76/27
f 18/74/28 25/77/28 26/78/28 19/75/28
f 25/77/29 32/79/29 33/80/29 26/78/29
f 32/79/30 39/81/30 40/82/30 33/80/30
f 39/81/31 46/83/31 47/84/31 40/82/31
f 46/83/32 53/85/32 54/86/32 47/84/32
f 53/85/33 60/87/33 61/88/33 54/86/33
usemtl None_FloorsRegular0277_1_S.jpg.001
f 4/89/24 11/90/24 12/91/24 5/92/24
f 60/93/24 67/94/24 68/95/24 61/96/24
usemtl None_Roads0069_9_S.jpg
f 3/97/24 10/98/24 9/99/24 2/100/24
f 10/98/24 17/101/24 16/102/24 9/99/24
f 17/101/24 24/103/24 23/104/24 16/102/24
f 24/103/24 31/105/24 30/106/24 23/104/24
f 31/105/24 38/107/24 37/108/24 30/106/24
f 38/107/24 45/109/24 44/110/24 37/108/24
f 45/109/24 52/111/24 51/112/24 44/110/24
f 52/111/24 59/113/24 58/114/24 51/112/24
f 59/113/24 66/115/24 65/116/24 58/114/24
usemtl None_NONE
f 1/117/34 8/118/34 11/119/34 4/120/34
f 8/118/35 15/121/35 18/122/35 11/119/35
f 15/121/36 22/123/36 25/124/36 18/122/36
f 22/123/37 29/125/37 32/126/37 25/124/37
f 29/125/38 36/127/38 39/128/38 32/126/38
f 36/127/39 43/129/39 46/130/39 39/128/39
f 43/129/40 50/131/40 53/132/40 46/130/40
f 50/131/41 57/133/41 60/134/41 53/132/41
f 57/133/42 64/135/42 67/136/42 60/134/42
