# Blender v2.77 (sub 0) OBJ File: 'Roads.blend'
# www.blender.org
mtllib road-t2.mtl
o Plane.019_Plane.005
v -22.939312 0.000000 -66.904068
v -22.939312 0.000000 -90.904068
v -28.939312 0.000000 -66.904068
v -28.939312 0.000000 -90.904068
v -22.939312 0.352445 -66.904068
v -22.939312 0.352445 -90.904068
v -28.564808 0.352445 -66.904068
v -28.564808 0.352445 -90.904068
v -28.892874 0.352445 -66.904068
v -28.939312 0.324559 -66.904068
v -28.939312 0.324559 -90.904068
v -28.892874 0.352445 -90.904068
v -22.939329 0.000000 -66.903809
v -34.757023 0.000000 -64.820030
v -28.848175 0.000000 -65.861923
v -22.939329 0.352445 -66.903809
v -28.479361 0.352445 -65.926949
v -28.802443 0.352445 -65.869980
v -28.848175 0.324559 -65.861923
v -22.939302 0.000000 -66.903549
v -34.215611 0.000000 -62.799305
v -28.577457 0.000000 -64.851425
v -22.939302 0.352445 -66.903549
v -28.225538 0.134183 -64.979515
v -28.533817 0.074704 -64.867310
v -28.577457 0.046818 -64.851425
v -22.939228 0.000000 -66.903297
v -33.331532 0.000000 -60.903297
v -28.135380 0.000000 -63.903297
v -22.939228 0.352445 -66.903297
v -27.811050 0.134183 -64.090553
v -28.095163 0.074704 -63.926517
v -28.135380 0.046818 -63.903297
v -22.939114 0.000000 -66.903069
v -32.131645 0.000000 -59.189613
v -27.535379 0.000000 -63.046341
v -22.939114 0.352445 -66.903069
v -27.248493 0.134183 -63.287064
v -27.499805 0.074704 -63.076191
v -27.535379 0.046818 -63.046341
v -22.938961 0.000000 -66.902855
v -30.652409 0.000000 -57.710320
v -26.795685 0.000000 -62.306587
v -22.938961 0.352445 -66.902855
v -26.554958 0.134183 -62.593475
v -26.765835 0.074704 -62.342163
v -26.795685 0.046818 -62.306587
v -22.938774 0.000000 -66.902679
v -28.938766 0.000000 -56.510368
v -25.938770 0.000000 -61.706520
v -22.938774 0.352445 -66.902679
v -25.751518 0.134183 -62.030853
v -25.915550 0.074704 -61.746742
v -25.938770 0.046818 -61.706520
v -22.938559 0.000000 -66.902534
v -27.042791 0.000000 -55.626221
v -24.990673 0.000000 -61.264374
v -22.938559 0.352445 -66.902534
v -24.862587 0.134183 -61.616295
v -24.974792 0.074704 -61.308014
v -24.990673 0.046818 -61.264374
v -22.938320 0.000000 -66.902428
v -25.022089 0.000000 -55.084732
v -23.980204 0.000000 -60.993576
v -22.938320 0.352445 -66.902428
v -23.915173 0.352445 -61.362392
v -23.972141 0.352445 -61.039314
v -23.980204 0.324559 -60.993576
v -22.938068 0.000000 -66.902359
v -22.938057 0.000000 -54.902367
v -22.938061 0.000000 -60.902363
v -22.938068 0.352445 -66.902359
v -22.938061 0.352445 -61.276867
v -22.938063 0.352445 -60.948807
v -22.938061 0.324559 -60.902363
v -46.939312 0.000000 -66.904068
v -46.939312 0.000000 -90.904068
v -34.939312 0.000000 -66.904068
v -34.939312 0.000000 -90.904068
v -40.939312 0.000000 -66.904068
v -40.939312 0.000000 -90.904068
v -46.939312 0.352445 -66.904068
v -46.939312 0.352445 -90.904068
v -41.313816 0.352445 -66.904068
v -41.313816 0.352445 -90.904068
v -40.985752 0.352445 -66.904068
v -40.939312 0.324559 -66.904068
v -40.939312 0.324559 -90.904068
v -40.985752 0.352445 -90.904068
v -46.939293 0.000000 -66.903809
v -35.121601 0.000000 -64.820030
v -41.030449 0.000000 -65.861923
v -46.939293 0.352445 -66.903809
v -41.399261 0.352445 -65.926949
v -41.076183 0.352445 -65.869980
v -41.030449 0.324559 -65.861923
v -46.939323 0.000000 -66.903549
v -35.663013 0.000000 -62.799305
v -41.301167 0.000000 -64.851425
v -46.939323 0.352445 -66.903549
v -41.653084 0.135387 -64.979515
v -41.344807 0.078485 -64.867310
v -41.301167 0.050600 -64.851425
v -46.939396 0.000000 -66.903297
v -36.547092 0.000000 -60.903297
v -41.743244 0.000000 -63.903297
v -46.939396 0.352445 -66.903297
v -42.067574 0.135387 -64.090553
v -41.783463 0.078485 -63.926517
v -41.743244 0.050600 -63.903297
v -46.939510 0.000000 -66.903069
v -37.746979 0.000000 -59.189613
v -42.343246 0.000000 -63.046341
v -46.939510 0.352445 -66.903069
v -42.630131 0.135387 -63.287064
v -42.378819 0.078485 -63.076191
v -42.343246 0.050600 -63.046341
v -46.939663 0.000000 -66.902855
v -39.226215 0.000000 -57.710320
v -43.082939 0.000000 -62.306587
v -46.939663 0.352445 -66.902855
v -43.323666 0.135387 -62.593475
v -43.112789 0.078485 -62.342163
v -43.082939 0.050600 -62.306587
v -46.939850 0.000000 -66.902679
v -40.939857 0.000000 -56.510368
v -43.939854 0.000000 -61.706520
v -46.939850 0.352445 -66.902679
v -44.127106 0.135387 -62.030853
v -43.963074 0.078485 -61.746742
v -43.939854 0.050600 -61.706520
v -46.940063 0.000000 -66.902534
v -42.835831 0.000000 -55.626221
v -44.887951 0.000000 -61.264374
v -46.940063 0.352445 -66.902534
v -45.016037 0.135387 -61.616295
v -44.903831 0.078485 -61.308014
v -44.887951 0.050600 -61.264374
v -46.940304 0.000000 -66.902428
v -44.856537 0.000000 -55.084732
v -45.898422 0.000000 -60.993576
v -46.940304 0.352445 -66.902428
v -45.963451 0.352445 -61.362392
v -45.906483 0.352445 -61.039314
v -45.898422 0.324559 -60.993576
v -46.940556 0.000000 -66.902359
v -46.940567 0.000000 -54.902367
v -46.940563 0.000000 -60.902363
v -46.940556 0.352445 -66.902359
v -46.940563 0.352445 -61.276867
v -46.940559 0.352445 -60.948807
v -46.940563 0.324559 -60.902363
vt 2.2412 0.3851
vt 2.2412 0.6146
vt 1.7392 0.6146
vt 1.7392 0.3851
vt 2.4346 0.0001
vt 2.4346 0.9999
vt 1.8765 1.0000
vt 1.8765 0.0001
vt 2.3439 -0.0005
vt 2.3439 0.9875
vt 1.8548 0.9875
vt 1.8548 -0.0005
vt 1.3240 0.9875
vt 1.3240 -0.0005
vt 1.2364 0.6146
vt 1.2364 0.3851
vt 1.3184 1.0000
vt 1.3184 0.0001
vt 0.7677 0.9875
vt 0.7677 -0.0005
vt 0.7330 0.6146
vt 0.7330 0.3851
vt 0.7602 1.0000
vt 0.7602 0.0001
vt 0.2294 0.6146
vt 0.2295 0.3851
vt 0.2021 1.0000
vt 0.2021 0.0001
vt 0.2027 0.9875
vt 0.2028 -0.0005
vt -0.3538 0.9875
vt -0.3538 -0.0005
vt -0.2741 0.6146
vt -0.2741 0.3851
vt -0.3560 1.0000
vt -0.3560 0.0001
vt -0.7773 0.6146
vt -0.7773 0.3851
vt -0.9141 1.0000
vt -0.9141 0.0001
vt -0.8851 0.9875
vt -0.8850 -0.0005
vt -1.2799 0.6146
vt -1.2798 0.3851
vt -1.4723 1.0000
vt -1.4723 0.0000
vt -1.3749 0.9875
vt -1.3748 -0.0005
vt 2.0317 0.3263
vt 1.5894 0.3263
vt 1.5894 0.6734
vt 2.0317 0.6734
vt 2.1440 0.0001
vt 1.6689 0.0001
vt 1.6689 1.0000
vt 2.1440 0.9999
vt 2.1222 -0.0005
vt 1.6912 -0.0005
vt 1.6912 0.9875
vt 2.1221 0.9875
vt 1.2237 -0.0005
vt 1.2236 0.9875
vt 1.1465 0.3263
vt 1.1465 0.6734
vt 1.1938 0.0001
vt 1.1938 1.0000
vt 0.7336 -0.0005
vt 0.7336 0.9875
vt 0.7030 0.3263
vt 0.7030 0.6734
vt 0.7187 0.0001
vt 0.7187 1.0000
vt 0.2594 0.3263
vt 0.2594 0.6734
vt 0.2436 0.0001
vt 0.2436 1.0000
vt 0.2359 -0.0005
vt 0.2359 0.9875
vt -0.2544 -0.0005
vt -0.2544 0.9875
vt -0.1841 0.3263
vt -0.1842 0.6734
vt -0.2315 0.0001
vt -0.2315 1.0000
vt -0.6274 0.3263
vt -0.6275 0.6734
vt -0.7066 0.0001
vt -0.7066 1.0000
vt -0.7224 -0.0005
vt -0.7224 0.9875
vt -1.0702 0.3263
vt -1.0702 0.6734
vt -1.1817 0.0000
vt -1.1817 1.0000
vt -1.1538 -0.0005
vt -1.1539 0.9875
vt -1.8687 -0.0206
vt 4.1105 -0.0206
vt 4.1105 1.0048
vt -1.8687 1.0048
vt 1.6123 -0.0007
vt 1.6123 1.0004
vt 1.3617 1.0004
vt 1.3617 -0.0007
vt -0.3998 -0.0007
vt -0.3998 1.0004
vt -0.6508 1.0004
vt -0.6507 -0.0007
vt -1.8687 -0.0206
vt -1.8687 1.0048
vt 4.1105 1.0048
vt 4.1105 -0.0206
vt 1.6123 -0.0007
vt 1.3617 -0.0007
vt 1.3617 1.0004
vt 1.6123 1.0004
vt -0.3998 -0.0007
vt -0.6507 -0.0007
vt -0.6508 1.0004
vt -0.3998 1.0004
vt 7.2876 0.0000
vt 0.0000 0.0000
vt 0.0000 1.0000
vt 7.2876 1.0000
vt 0.0371 1.0652
vt 0.0371 0.0004
vt 7.2876 0.0004
vt 7.2876 1.0652
vt 1.6295 -0.0005
vt 1.6295 0.9875
vt 1.4131 0.9875
vt 1.4131 -0.0005
vt 1.7376 0.0001
vt 1.7376 0.9999
vt 1.4584 0.9999
vt 1.4584 0.0001
vt -0.4473 -0.0005
vt -0.4474 0.9875
vt -0.6642 0.9875
vt -0.6642 -0.0005
vt -0.4961 0.0000
vt -0.4961 1.0000
vt -0.7753 0.9999
vt -0.7753 0.0000
vt 7.2876 0.0000
vt 7.2876 1.0000
vt 0.0000 1.0000
vt 0.0000 0.0000
vt 0.0371 1.0652
vt 7.2876 1.0652
vt 7.2876 0.0004
vt 0.0371 0.0004
vt 1.6295 -0.0005
vt 1.4131 -0.0005
vt 1.4131 0.9875
vt 1.6295 0.9875
vt 1.7376 0.0001
vt 1.4584 0.0001
vt 1.4584 0.9999
vt 1.7376 0.9999
vt -0.4473 -0.0005
vt -0.6642 -0.0005
vt -0.6642 0.9875
vt -0.4474 0.9875
vt -0.4961 0.0000
vt -0.7753 0.0000
vt -0.7753 0.9999
vt -0.4961 1.0000
vt -0.0015 1.0000
vt 0.1776 0.0049
vt 0.3417 0.0567
vt -0.0015 1.0000
vt 0.4510 0.1058
vt -0.0015 0.9999
vt 0.5441 0.1521
vt -0.0015 0.9999
vt 0.6904 0.2595
vt -0.0015 0.9998
vt 0.8457 0.4461
vt -0.0014 0.9998
vt 0.9515 0.6545
vt -0.0014 0.9998
vt 0.9971 0.8238
vt -0.0013 0.9998
vt 0.0002 1.0000
vt 0.0002 1.0000
vt 0.9542 0.6527
vt 1.0000 0.8237
vt 0.0002 0.9999
vt 0.8794 0.4923
vt 0.0001 0.9999
vt 0.7779 0.3473
vt 0.0001 0.9998
vt 0.6527 0.2222
vt 0.0001 0.9998
vt 0.5077 0.1206
vt 0.0000 0.9998
vt 0.3473 0.0458
vt 0.0000 0.9998
vt 0.1763 0.0000
vt 0.0000 -3.6022
vt 1.3659 -3.6022
vt 1.3659 3.2123
vt 0.0000 3.2123
vt 1.1705 0.8033
vt -0.1970 0.8033
vt -0.1762 0.5602
vt 1.1705 0.8032
vt 1.1708 0.8029
vt 0.9333 -0.5754
vt 1.1709 -0.5967
vt 1.1709 0.8028
vt 0.0000 -3.6022
vt 0.0000 3.2123
vt 1.3659 3.2123
vt 1.3659 -3.6022
vt 1.1705 0.8033
vt 1.1705 0.8032
vt -0.1762 0.5602
vt -0.1970 0.8033
vt 1.1708 0.8029
vt 1.1709 0.8028
vt 1.1709 -0.5967
vt 0.9333 -0.5754
vt 0.4117 -0.9431
vt 0.9913 -0.9431
vt 0.9913 1.0000
vt 0.4117 1.0000
vt 0.9887 1.0000
vt 0.4343 1.0000
vt 0.4343 0.8794
vt 0.9887 0.8794
vt 0.4343 0.7554
vt 0.9887 0.7554
vt 0.4343 0.6395
vt 0.9887 0.6395
vt 0.4343 0.5354
vt 0.9887 0.5354
vt 0.4343 0.4349
vt 0.9887 0.4349
vt 0.4343 0.3425
vt 0.9887 0.3425
vt 0.4343 0.2234
vt 0.9887 0.2234
vt 0.4343 0.1065
vt 0.9887 0.1065
vt 0.4343 -0.0020
vt 0.9887 -0.0020
vt 0.9913 1.0000
vt 0.9913 -0.9431
vt 0.9887 1.0000
vt 0.9887 0.8794
vt 0.4343 0.8794
vt 0.9887 0.7554
vt 0.4343 0.7554
vt 0.9887 0.6395
vt 0.4343 0.6395
vt 0.9887 0.5354
vt 0.4343 0.5354
vt 0.9887 0.4349
vt 0.4343 0.4349
vt 0.9887 0.3425
vt 0.4343 0.3425
vt 0.9887 0.2234
vt 0.4343 0.2234
vt 0.9887 0.1065
vt 0.4343 0.1065
vt 0.9887 -0.0020
vt 0.4343 -0.0020
vt 0.5000 0.7960
vt 0.4955 0.6932
vt 0.5045 0.6932
vt 0.4822 0.5935
vt 0.5178 0.5935
vt 0.4603 0.5000
vt 0.5397 0.5000
vt 0.4308 0.4155
vt 0.5692 0.4155
vt 0.3943 0.3425
vt 0.6057 0.3425
vt 0.3520 0.2833
vt 0.6480 0.2833
vt 0.3053 0.2397
vt 0.6947 0.2397
vt 0.2554 0.2130
vt 0.7446 0.2130
vt 0.2040 0.2040
vt 0.7960 0.2040
vt 0.0000 0.0000
vt 0.0000 0.0000
vt 0.0000 0.0000
vt 0.0000 0.0000
vt 0.0000 0.0000
vt 0.0000 0.0000
vt 0.0000 0.0000
vt 0.0000 0.0000
vt 0.0000 0.0000
vt 0.0000 0.0000
vt 0.0000 0.0000
vt 0.0000 0.0000
vt 0.0000 0.0000
vt 0.0000 0.0000
vt 0.0000 0.0000
vt 0.0000 0.0000
vt 0.0000 0.0000
vt 0.0000 0.0000
vt 0.0000 0.0000
vt 0.0000 0.0000
vt 0.0000 0.0000
vt 0.0000 0.0000
vt 0.0000 0.0000
vt 0.0000 0.0000
vt 0.0000 0.0000
vt 0.0000 0.0000
vt 0.0000 0.0000
vt 0.0000 0.0000
vt 0.0000 0.0000
vt 0.0000 0.0000
vt 0.0000 0.0000
vt 0.0000 0.0000
vt 0.0000 0.0000
vt 0.0000 0.0000
vt 0.0000 0.0000
vt 0.0000 0.0000
vt 0.0000 0.0000
vt 0.0000 0.0000
vt 0.0000 0.0000
vt 0.0000 0.0000
vt 0.0000 0.0000
vt 0.0000 0.0000
vt 0.0000 0.0000
vt 0.0000 0.0000
vn -0.4286 0.8350 0.3452
vn -0.9659 0.0000 0.2588
vn -0.0235 0.9674 0.2523
vn -0.1623 0.9838 0.0757
vn -0.4679 0.8564 0.2182
vn -0.9063 0.0000 0.4226
vn -0.1467 0.9838 0.1027
vn -0.4229 0.8564 0.2961
vn -0.8192 0.0000 0.5735
vn -0.3651 0.8564 0.3650
vn -0.7071 0.0000 0.7071
vn -0.1266 0.9838 0.1266
vn -0.1027 0.9838 0.1467
vn -0.2961 0.8565 0.4229
vn -0.5736 0.0000 0.8191
vn -0.2182 0.8565 0.4678
vn -0.4227 0.0000 0.9063
vn -0.0757 0.9838 0.1623
vn -0.3452 0.8350 0.4285
vn -0.2589 0.0000 0.9659
vn -0.2523 0.9674 0.0235
vn 0.4297 0.8355 0.3425
vn 0.9659 0.0000 0.2588
vn 0.0205 0.9682 0.2493
vn 0.1555 0.9852 0.0725
vn 0.4679 0.8565 0.2182
vn 0.9063 0.0000 0.4226
vn 0.1405 0.9852 0.0984
vn 0.4229 0.8564 0.2961
vn 0.8192 0.0000 0.5735
vn 0.3651 0.8564 0.3650
vn 0.7071 0.0000 0.7071
vn 0.1213 0.9852 0.1213
vn 0.0984 0.9852 0.1405
vn 0.2961 0.8565 0.4228
vn 0.5736 0.0000 0.8191
vn 0.2182 0.8565 0.4678
vn 0.4227 0.0000 0.9063
vn 0.0725 0.9852 0.1555
vn 0.3425 0.8355 0.4296
vn 0.2589 0.0000 0.9659
vn 0.2493 0.9682 0.0205
vn -0.5148 0.8573 0.0000
vn -0.5143 0.8564 0.0450
vn -0.0450 0.8565 0.5142
vn 0.5148 0.8573 0.0000
vn 0.5142 0.8565 0.0450
vn 0.0450 0.8565 0.5142
vn -1.0000 0.0000 0.0000
vn 0.0000 1.0000 0.0000
vn -0.9962 0.0000 0.0871
vn -0.0872 0.0000 0.9962
vn 1.0000 0.0000 0.0000
vn 0.9962 0.0000 0.0871
vn 0.0872 0.0000 0.9962
vn 0.0378 0.9760 0.2146
vn -0.0353 0.9992 0.0164
vn -0.0319 0.9992 0.0223
vn -0.0275 0.9992 0.0275
vn -0.0223 0.9992 0.0319
vn -0.0164 0.9992 0.0353
vn -0.2146 0.9760 -0.0378
vn -0.0376 0.9762 0.2135
vn 0.0351 0.9993 0.0164
vn 0.0317 0.9993 0.0222
vn 0.0274 0.9993 0.0274
vn 0.0222 0.9993 0.0317
vn 0.0164 0.9993 0.0351
vn 0.2135 0.9762 -0.0376
vn 0.9978 0.0000 0.0659
vn 0.9948 0.0000 -0.1023
vn 0.9581 0.0000 -0.2863
vn 0.8974 0.0000 -0.4413
vn 0.8104 0.0000 -0.5859
vn 0.6908 0.0000 -0.7230
vn 0.5467 0.0000 -0.8374
vn 0.4134 0.0000 -0.9106
vn 0.2691 0.0000 -0.9631
vn -0.9973 0.0000 0.0736
vn -0.9932 0.0000 -0.1167
vn -0.9601 0.0000 -0.2795
vn -0.8974 0.0000 -0.4413
vn -0.8104 0.0000 -0.5859
vn -0.6908 0.0000 -0.7230
vn -0.5501 0.0000 -0.8351
vn -0.4106 0.0000 -0.9118
vn -0.2691 0.0000 -0.9631
usemtl None
s off
f 18/1/1 19/2/1 26/3/1 25/4/1
f 19/5/2 15/6/2 22/7/2 26/8/2
f 17/9/3 18/10/3 25/11/3 24/12/3
f 24/12/4 25/11/4 32/13/4 31/14/4
f 25/4/5 26/3/5 33/15/5 32/16/5
f 26/8/6 22/7/6 29/17/6 33/18/6
f 31/14/7 32/13/7 39/19/7 38/20/7
f 32/16/8 33/15/8 40/21/8 39/22/8
f 33/18/9 29/17/9 36/23/9 40/24/9
f 39/22/10 40/21/10 47/25/10 46/26/10
f 40/24/11 36/23/11 43/27/11 47/28/11
f 38/20/12 39/19/12 46/29/12 45/30/12
f 45/30/13 46/29/13 53/31/13 52/32/13
f 46/26/14 47/25/14 54/33/14 53/34/14
f 47/28/15 43/27/15 50/35/15 54/36/15
f 53/34/16 54/33/16 61/37/16 60/38/16
f 54/36/17 50/35/17 57/39/17 61/40/17
f 52/32/18 53/31/18 60/41/18 59/42/18
f 60/38/19 61/37/19 68/43/19 67/44/19
f 61/40/20 57/39/20 64/45/20 68/46/20
f 59/42/21 60/41/21 67/47/21 66/48/21
f 95/49/22 102/50/22 103/51/22 96/52/22
f 96/53/23 103/54/23 99/55/23 92/56/23
f 94/57/24 101/58/24 102/59/24 95/60/24
f 101/58/25 108/61/25 109/62/25 102/59/25
f 102/50/26 109/63/26 110/64/26 103/51/26
f 103/54/27 110/65/27 106/66/27 99/55/27
f 108/61/28 115/67/28 116/68/28 109/62/28
f 109/63/29 116/69/29 117/70/29 110/64/29
f 110/65/30 117/71/30 113/72/30 106/66/30
f 116/69/31 123/73/31 124/74/31 117/70/31
f 117/71/32 124/75/32 120/76/32 113/72/32
f 115/67/33 122/77/33 123/78/33 116/68/33
f 122/77/34 129/79/34 130/80/34 123/78/34
f 123/73/35 130/81/35 131/82/35 124/74/35
f 124/75/36 131/83/36 127/84/36 120/76/36
f 130/81/37 137/85/37 138/86/37 131/82/37
f 131/83/38 138/87/38 134/88/38 127/84/38
f 129/79/39 136/89/39 137/90/39 130/80/39
f 137/85/40 144/91/40 145/92/40 138/86/40
f 138/87/41 145/93/41 141/94/41 134/88/41
f 136/89/42 143/95/42 144/96/42 137/90/42
usemtl None_CordonMedium.jpg.001
f 9/97/43 12/98/43 11/99/43 10/100/43
f 9/101/44 10/102/44 19/103/44 18/104/44
f 67/105/45 68/106/45 75/107/45 74/108/45
f 86/109/46 87/110/46 88/111/46 89/112/46
f 86/113/47 95/114/47 96/115/47 87/116/47
f 144/117/48 151/118/48 152/119/48 145/120/48
usemtl None_CordonTop.jpg.001
f 4/121/49 3/122/49 10/123/49 11/124/49
f 9/125/50 7/126/50 8/127/50 12/128/50
f 7/129/50 9/130/50 18/131/50 17/132/50
f 10/133/51 3/134/51 15/135/51 19/136/51
f 66/137/50 67/138/50 74/139/50 73/140/50
f 68/141/52 64/142/52 71/143/52 75/144/52
f 81/145/53 88/146/53 87/147/53 80/148/53
f 86/149/50 89/150/50 85/151/50 84/152/50
f 84/153/50 94/154/50 95/155/50 86/156/50
f 87/157/54 96/158/54 92/159/54 80/160/54
f 143/161/50 150/162/50 151/163/50 144/164/50
f 145/165/55 152/166/55 148/167/55 141/168/55
usemtl None_EsquinaTextura.png
f 16/169/56 17/170/56 24/171/56 23/172/56
f 23/172/57 24/171/57 31/173/57 30/174/57
f 30/174/58 31/173/58 38/175/58 37/176/58
f 37/176/59 38/175/59 45/177/59 44/178/59
f 44/178/60 45/177/60 52/179/60 51/180/60
f 51/180/61 52/179/61 59/181/61 58/182/61
f 58/182/62 59/181/62 66/183/62 65/184/62
f 93/185/63 100/186/63 101/187/63 94/188/63
f 100/186/64 107/189/64 108/190/64 101/187/64
f 107/189/65 114/191/65 115/192/65 108/190/65
f 114/191/66 121/193/66 122/194/66 115/192/66
f 121/193/67 128/195/67 129/196/67 122/194/67
f 128/195/68 135/197/68 136/198/68 129/196/68
f 135/197/69 142/199/69 143/200/69 136/198/69
usemtl None_FloorsRegular0277_1_S.jpg.001
f 7/201/50 5/202/50 6/203/50 8/204/50
f 5/205/50 7/206/50 17/207/50 16/208/50
f 65/209/50 66/210/50 73/211/50 72/212/50
f 84/213/50 85/214/50 83/215/50 82/216/50
f 82/217/50 93/218/50 94/219/50 84/220/50
f 142/221/50 149/222/50 150/223/50 143/224/50
usemtl None_Roads0069_9_S.jpg
f 78/225/50 3/226/50 4/227/50 79/228/50
f 3/229/50 78/230/50 14/231/50 15/232/50
f 15/232/50 14/231/50 21/233/50 22/234/50
f 22/234/50 21/233/50 28/235/50 29/236/50
f 29/236/50 28/235/50 35/237/50 36/238/50
f 36/238/50 35/237/50 42/239/50 43/240/50
f 43/240/50 42/239/50 49/241/50 50/242/50
f 50/242/50 49/241/50 56/243/50 57/244/50
f 57/244/50 56/243/50 63/245/50 64/246/50
f 64/246/50 63/245/50 70/247/50 71/248/50
f 78/225/50 79/228/50 81/249/50 80/250/50
f 80/251/50 92/252/50 91/253/50 78/230/50
f 92/252/50 99/254/50 98/255/50 91/253/50
f 99/254/50 106/256/50 105/257/50 98/255/50
f 106/256/50 113/258/50 112/259/50 105/257/50
f 113/258/50 120/260/50 119/261/50 112/259/50
f 120/260/50 127/262/50 126/263/50 119/261/50
f 127/262/50 134/264/50 133/265/50 126/263/50
f 134/264/50 141/266/50 140/267/50 133/265/50
f 141/266/50 148/268/50 147/269/50 140/267/50
usemtl None_RoadTexture2.jpg
f 78/270/50 91/271/50 14/272/50
f 14/272/50 91/271/50 98/273/50 21/274/50
f 21/274/50 98/273/50 105/275/50 28/276/50
f 28/276/50 105/275/50 112/277/50 35/278/50
f 35/278/50 112/277/50 119/279/50 42/280/50
f 42/280/50 119/279/50 126/281/50 49/282/50
f 49/282/50 126/281/50 133/283/50 56/284/50
f 56/284/50 133/283/50 140/285/50 63/286/50
f 63/286/50 140/285/50 147/287/50 70/288/50
usemtl None_NONE
f 1/289/53 2/290/53 6/291/53 5/292/53
f 1/289/70 5/292/70 16/293/70 13/294/70
f 13/294/71 16/293/71 23/295/71 20/296/71
f 20/296/72 23/295/72 30/297/72 27/298/72
f 27/298/73 30/297/73 37/299/73 34/300/73
f 34/300/74 37/299/74 44/301/74 41/302/74
f 41/302/75 44/301/75 51/303/75 48/304/75
f 48/304/76 51/303/76 58/305/76 55/306/76
f 55/306/77 58/305/77 65/307/77 62/308/77
f 62/308/78 65/307/78 72/309/78 69/310/78
f 76/311/49 82/312/49 83/313/49 77/314/49
f 76/311/79 90/315/79 93/316/79 82/312/79
f 90/315/80 97/317/80 100/318/80 93/316/80
f 97/317/81 104/319/81 107/320/81 100/318/81
f 104/319/82 111/321/82 114/322/82 107/320/82
f 111/321/83 118/323/83 121/324/83 114/322/83
f 118/323/84 125/325/84 128/326/84 121/324/84
f 125/325/85 132/327/85 135/328/85 128/326/85
f 132/327/86 139/329/86 142/330/86 135/328/86
f 139/329/87 146/331/87 149/332/87 142/330/87
