# Blender v2.77 (sub 0) OBJ File: 'Roads.blend'
# www.blender.org
mtllib road-straight.mtl
o Plane.017
v -57.260658 0.000000 -7.970654
v -57.260658 0.000000 -31.970654
v -63.260658 0.000000 -7.970654
v -63.260658 0.000000 -31.970654
v -57.260658 0.352445 -7.970654
v -57.260658 0.352445 -31.970654
v -62.886154 0.352445 -7.970654
v -62.886154 0.352445 -31.970654
v -63.214218 0.352445 -7.970654
v -63.260658 0.324559 -7.970654
v -63.260658 0.324559 -31.970654
v -63.214218 0.352445 -31.970654
v -81.260658 0.000000 -7.970654
v -81.260658 0.000000 -31.970654
v -69.260658 0.000000 -7.970654
v -69.260658 0.000000 -31.970654
v -75.260658 0.000000 -7.970654
v -75.260658 0.000000 -31.970654
v -81.260658 0.352445 -7.970654
v -81.260658 0.352445 -31.970654
v -75.635162 0.352445 -7.970654
v -75.635162 0.352445 -31.970654
v -75.307098 0.352445 -7.970654
v -75.260658 0.324559 -7.970654
v -75.260658 0.324559 -31.970654
v -75.307098 0.352445 -31.970654
vt -1.8687 -0.0206
vt 4.1105 -0.0206
vt 4.1105 1.0048
vt -1.8687 1.0048
vt -1.8687 -0.0206
vt -1.8687 1.0048
vt 4.1105 1.0048
vt 4.1105 -0.0206
vt 7.2876 0.0000
vt 0.0000 0.0000
vt 0.0000 1.0000
vt 7.2876 1.0000
vt 0.0371 1.0652
vt 0.0371 0.0004
vt 7.2876 0.0004
vt 7.2876 1.0652
vt 7.2876 0.0000
vt 7.2876 1.0000
vt 0.0000 1.0000
vt 0.0000 0.0000
vt 0.0371 1.0652
vt 7.2876 1.0652
vt 7.2876 0.0004
vt 0.0371 0.0004
vt 0.0000 -3.6022
vt 1.3659 -3.6022
vt 1.3659 3.2123
vt 0.0000 3.2123
vt 0.0000 -3.6022
vt 0.0000 3.2123
vt 1.3659 3.2123
vt 1.3659 -3.6022
vt 0.4117 -0.9431
vt 0.9913 -0.9431
vt 0.9913 1.0000
vt 0.4117 1.0000
vt 0.9913 1.0000
vt 0.9913 -0.9431
vt 0.0000 0.0000
vt 0.0000 0.0000
vt 0.0000 0.0000
vt 0.0000 0.0000
vt 0.0000 0.0000
vt 0.0000 0.0000
vt 0.0000 0.0000
vt 0.0000 0.0000
vn -0.5148 0.8573 0.0000
vn 0.5148 0.8573 0.0000
vn -1.0000 0.0000 0.0000
vn 0.0000 1.0000 0.0000
vn 1.0000 0.0000 0.0000
usemtl None
s off
f 9/1/1 12/2/1 11/3/1 10/4/1
f 23/5/2 24/6/2 25/7/2 26/8/2
usemtl None_CordonTop.jpg.001
f 4/9/3 3/10/3 10/11/3 11/12/3
f 9/13/4 7/14/4 8/15/4 12/16/4
f 18/17/5 25/18/5 24/19/5 17/20/5
f 23/21/4 26/22/4 22/23/4 21/24/4
usemtl None_FloorsRegular0277_1_S.jpg.001
f 7/25/4 5/26/4 6/27/4 8/28/4
f 21/29/4 22/30/4 20/31/4 19/32/4
usemtl None_Roads0069_9_S.jpg
f 15/33/4 3/34/4 4/35/4 16/36/4
f 15/33/4 16/36/4 18/37/4 17/38/4
usemtl None_NONE
f 1/39/5 2/40/5 6/41/5 5/42/5
f 13/43/3 19/44/3 20/45/3 14/46/3
