# Blender v2.77 (sub 0) OBJ File: 'Roads.blend'
# www.blender.org
mtllib road-t.mtl
o Plane.008_Plane.019
v -57.291115 0.000000 -65.964134
v -57.291115 0.000000 -89.964134
v -63.291115 0.000000 -65.964134
v -63.291115 0.000000 -89.964134
v -57.291115 0.352445 -65.964134
v -57.291115 0.352445 -89.964134
v -62.916611 0.352445 -65.964134
v -62.916611 0.352445 -89.964134
v -63.244675 0.352445 -65.964134
v -63.291115 0.324559 -65.964134
v -63.291115 0.324559 -89.964134
v -63.244675 0.352445 -89.964134
v -57.291130 0.000000 -65.963875
v -69.108826 0.000000 -63.880096
v -63.199978 0.000000 -64.921982
v -57.291130 0.352445 -65.963875
v -62.831165 0.352445 -64.987015
v -63.154243 0.352445 -64.930046
v -63.199978 0.324559 -64.921982
v -57.291107 0.000000 -65.963615
v -68.567413 0.000000 -61.859371
v -62.929260 0.000000 -63.911495
v -57.291107 0.352445 -65.963615
v -62.577339 0.352445 -64.039581
v -62.885620 0.352445 -63.927376
v -62.929260 0.324559 -63.911495
v -57.291031 0.000000 -65.963364
v -67.683334 0.000000 -59.963364
v -62.487183 0.000000 -62.963364
v -57.291031 0.352445 -65.963364
v -62.162853 0.352445 -63.150620
v -62.446964 0.352445 -62.986584
v -62.487183 0.324559 -62.963364
v -57.290916 0.000000 -65.963135
v -66.483444 0.000000 -58.249680
v -61.887184 0.000000 -62.106407
v -57.290916 0.352445 -65.963135
v -61.600296 0.352445 -62.347130
v -61.851608 0.352445 -62.136257
v -61.887184 0.324559 -62.106407
v -57.290764 0.000000 -65.962921
v -65.004211 0.000000 -56.770386
v -61.147488 0.000000 -61.366653
v -57.290764 0.352445 -65.962921
v -60.906761 0.352445 -61.653542
v -61.117638 0.352445 -61.402229
v -61.147488 0.324559 -61.366653
v -57.290577 0.000000 -65.962738
v -63.290569 0.000000 -55.570435
v -60.290573 0.000000 -60.766586
v -57.290577 0.352445 -65.962738
v -60.103321 0.352445 -61.090919
v -60.267353 0.352445 -60.806808
v -60.290573 0.324559 -60.766586
v -57.290359 0.000000 -65.962601
v -61.394592 0.000000 -54.686287
v -59.342476 0.000000 -60.324440
v -57.290359 0.352445 -65.962601
v -59.214390 0.352445 -60.676361
v -59.326595 0.352445 -60.368080
v -59.342476 0.324559 -60.324440
v -57.290123 0.000000 -65.962494
v -59.373894 0.000000 -54.144798
v -58.332008 0.000000 -60.053642
v -57.290123 0.352445 -65.962494
v -58.266975 0.352445 -60.422459
v -58.323944 0.352445 -60.099380
v -58.332008 0.324559 -60.053642
v -57.289871 0.000000 -65.962433
v -57.289860 0.000000 -53.962433
v -57.289864 0.000000 -59.962429
v -57.289871 0.352445 -65.962433
v -57.289864 0.352445 -60.336933
v -57.289864 0.352445 -60.008873
v -57.289864 0.324559 -59.962429
v -81.291115 0.000000 -65.964134
v -81.291115 0.000000 -89.964134
v -69.291115 0.000000 -65.964134
v -69.291115 0.000000 -89.964134
v -75.291115 0.000000 -65.964134
v -75.291115 0.000000 -89.964134
v -81.291115 0.352445 -65.964134
v -81.291115 0.352445 -89.964134
v -75.665619 0.352445 -65.964134
v -75.665619 0.352445 -89.964134
v -75.337555 0.352445 -65.964134
v -75.291115 0.324559 -65.964134
v -75.291115 0.324559 -89.964134
v -75.337555 0.352445 -89.964134
v -81.291100 0.000000 -65.963875
v -69.473404 0.000000 -63.880096
v -75.382248 0.000000 -64.921982
v -81.291100 0.352445 -65.963875
v -75.751068 0.352445 -64.987015
v -75.427986 0.352445 -64.930046
v -75.382248 0.324559 -64.921982
v -81.291122 0.000000 -65.963615
v -70.014816 0.000000 -61.859371
v -75.652969 0.000000 -63.911495
v -81.291122 0.352445 -65.963615
v -76.004890 0.352445 -64.039581
v -75.696609 0.352445 -63.927376
v -75.652969 0.324559 -63.911495
v -81.291199 0.000000 -65.963364
v -70.898895 0.000000 -59.963364
v -76.095047 0.000000 -62.963364
v -81.291199 0.352445 -65.963364
v -76.419373 0.352445 -63.150620
v -76.135262 0.352445 -62.986584
v -76.095047 0.324559 -62.963364
v -81.291313 0.000000 -65.963135
v -72.098785 0.000000 -58.249680
v -76.695045 0.000000 -62.106407
v -81.291313 0.352445 -65.963135
v -76.981934 0.352445 -62.347130
v -76.730621 0.352445 -62.136257
v -76.695045 0.324559 -62.106407
v -81.291466 0.000000 -65.962921
v -73.578018 0.000000 -56.770386
v -77.434746 0.000000 -61.366653
v -81.291466 0.352445 -65.962921
v -77.675468 0.352445 -61.653542
v -77.464592 0.352445 -61.402229
v -77.434746 0.324559 -61.366653
v -81.291656 0.000000 -65.962738
v -75.291656 0.000000 -55.570435
v -78.291656 0.000000 -60.766586
v -81.291656 0.352445 -65.962738
v -78.478912 0.352445 -61.090919
v -78.314873 0.352445 -60.806808
v -78.291656 0.324559 -60.766586
v -81.291870 0.000000 -65.962601
v -77.187637 0.000000 -54.686287
v -79.239754 0.000000 -60.324440
v -81.291870 0.352445 -65.962601
v -79.367844 0.352445 -60.676361
v -79.255638 0.352445 -60.368080
v -79.239754 0.324559 -60.324440
v -81.292107 0.000000 -65.962494
v -79.208336 0.000000 -54.144798
v -80.250221 0.000000 -60.053642
v -81.292107 0.352445 -65.962494
v -80.315254 0.352445 -60.422459
v -80.258286 0.352445 -60.099380
v -80.250221 0.324559 -60.053642
v -81.292358 0.000000 -65.962433
v -81.292374 0.000000 -53.962433
v -81.292366 0.000000 -59.962429
v -81.292358 0.352445 -65.962433
v -81.292366 0.352445 -60.336933
v -81.292366 0.352445 -60.008873
v -81.292366 0.324559 -59.962429
vt -1.8687 -0.0206
vt 4.1105 -0.0206
vt 4.1105 1.0048
vt -1.8687 1.0048
vt 1.6123 -0.0007
vt 1.6123 1.0004
vt 1.3617 1.0004
vt 1.3617 -0.0007
vt 1.1105 1.0004
vt 1.1105 -0.0007
vt 0.8590 1.0004
vt 0.8590 -0.0007
vt 0.6072 1.0004
vt 0.6072 -0.0007
vt 0.3552 1.0004
vt 0.3552 -0.0007
vt 0.1033 1.0004
vt 0.1033 -0.0007
vt -0.1484 1.0004
vt -0.1484 -0.0007
vt -0.3998 1.0004
vt -0.3998 -0.0007
vt -0.6508 1.0004
vt -0.6507 -0.0007
vt -1.8687 -0.0206
vt -1.8687 1.0048
vt 4.1105 1.0048
vt 4.1105 -0.0206
vt 1.6123 -0.0007
vt 1.3617 -0.0007
vt 1.3617 1.0004
vt 1.6123 1.0004
vt 1.1105 -0.0007
vt 1.1105 1.0004
vt 0.8590 -0.0007
vt 0.8590 1.0004
vt 0.6072 -0.0007
vt 0.6072 1.0004
vt 0.3552 -0.0007
vt 0.3552 1.0004
vt 0.1033 -0.0007
vt 0.1033 1.0004
vt -0.1484 -0.0007
vt -0.1484 1.0004
vt -0.3998 -0.0007
vt -0.3998 1.0004
vt -0.6507 -0.0007
vt -0.6508 1.0004
vt 7.2876 0.0000
vt 0.0000 0.0000
vt 0.0000 1.0000
vt 7.2876 1.0000
vt 0.0371 1.0652
vt 0.0371 0.0004
vt 7.2876 0.0004
vt 7.2876 1.0652
vt 1.6295 -0.0005
vt 1.6295 0.9875
vt 1.4131 0.9875
vt 1.4131 -0.0005
vt 1.7376 0.0001
vt 1.7376 0.9999
vt 1.4584 0.9999
vt 1.4584 0.0001
vt 1.1792 1.0000
vt 1.1792 0.0001
vt 1.1683 0.9875
vt 1.1684 -0.0005
vt 0.9028 0.9875
vt 0.9028 -0.0005
vt 0.9000 1.0000
vt 0.9000 0.0001
vt 0.6245 0.9875
vt 0.6245 -0.0005
vt 0.6208 1.0000
vt 0.6208 0.0001
vt 0.3416 1.0000
vt 0.3416 0.0001
vt 0.3419 0.9875
vt 0.3419 -0.0005
vt 0.0634 0.9875
vt 0.0635 -0.0005
vt 0.0623 1.0000
vt 0.0623 0.0001
vt -0.2169 1.0000
vt -0.2169 0.0001
vt -0.2023 0.9875
vt -0.2023 -0.0005
vt -0.4961 1.0000
vt -0.4961 0.0000
vt -0.4474 0.9875
vt -0.4473 -0.0005
vt -0.6642 0.9875
vt -0.6642 -0.0005
vt -0.7753 0.9999
vt -0.7753 0.0000
vt 7.2876 0.0000
vt 7.2876 1.0000
vt 0.0000 1.0000
vt 0.0000 0.0000
vt 0.0371 1.0652
vt 7.2876 1.0652
vt 7.2876 0.0004
vt 0.0371 0.0004
vt 1.6295 -0.0005
vt 1.4131 -0.0005
vt 1.4131 0.9875
vt 1.6295 0.9875
vt 1.7376 0.0001
vt 1.4584 0.0001
vt 1.4584 0.9999
vt 1.7376 0.9999
vt 1.1792 0.0001
vt 1.1792 1.0000
vt 1.1684 -0.0005
vt 1.1683 0.9875
vt 0.9028 -0.0005
vt 0.9028 0.9875
vt 0.9000 0.0001
vt 0.9000 1.0000
vt 0.6245 -0.0005
vt 0.6245 0.9875
vt 0.6208 0.0001
vt 0.6208 1.0000
vt 0.3416 0.0001
vt 0.3416 1.0000
vt 0.3419 -0.0005
vt 0.3419 0.9875
vt 0.0635 -0.0005
vt 0.0634 0.9875
vt 0.0623 0.0001
vt 0.0623 1.0000
vt -0.2169 0.0001
vt -0.2169 1.0000
vt -0.2023 -0.0005
vt -0.2023 0.9875
vt -0.4961 0.0000
vt -0.4961 1.0000
vt -0.4473 -0.0005
vt -0.4474 0.9875
vt -0.6642 -0.0005
vt -0.6642 0.9875
vt -0.7753 0.0000
vt -0.7753 0.9999
vt 0.0000 -3.6022
vt 1.3659 -3.6022
vt 1.3659 3.2123
vt 0.0000 3.2123
vt 1.1705 0.8033
vt -0.1970 0.8033
vt -0.1762 0.5602
vt 1.1705 0.8032
vt -0.1145 0.3245
vt 1.1706 0.8031
vt -0.0138 0.1033
vt 1.1706 0.8031
vt 0.1230 -0.0966
vt 1.1706 0.8030
vt 0.2916 -0.2692
vt 1.1706 0.8030
vt 0.4869 -0.4091
vt 1.1707 0.8029
vt 0.7030 -0.5123
vt 1.1707 0.8029
vt 0.9333 -0.5754
vt 1.1708 0.8029
vt 1.1709 -0.5967
vt 1.1709 0.8028
vt 0.0000 -3.6022
vt 0.0000 3.2123
vt 1.3659 3.2123
vt 1.3659 -3.6022
vt 1.1705 0.8033
vt 1.1705 0.8032
vt -0.1762 0.5602
vt -0.1970 0.8033
vt 1.1706 0.8031
vt -0.1145 0.3245
vt 1.1706 0.8031
vt -0.0138 0.1033
vt 1.1706 0.8030
vt 0.1230 -0.0966
vt 1.1706 0.8030
vt 0.2916 -0.2692
vt 1.1707 0.8029
vt 0.4869 -0.4091
vt 1.1707 0.8029
vt 0.7030 -0.5123
vt 1.1708 0.8029
vt 0.9333 -0.5754
vt 1.1709 0.8028
vt 1.1709 -0.5967
vt 0.4117 -0.9431
vt 0.9913 -0.9431
vt 0.9913 1.0000
vt 0.4117 1.0000
vt 0.9887 1.0000
vt 0.4343 1.0000
vt 0.4343 0.8794
vt 0.9887 0.8794
vt 0.4343 0.7554
vt 0.9887 0.7554
vt 0.4343 0.6395
vt 0.9887 0.6395
vt 0.4343 0.5354
vt 0.9887 0.5354
vt 0.4343 0.4349
vt 0.9887 0.4349
vt 0.4343 0.3425
vt 0.9887 0.3425
vt 0.4343 0.2234
vt 0.9887 0.2234
vt 0.4343 0.1065
vt 0.9887 0.1065
vt 0.4343 -0.0020
vt 0.9887 -0.0020
vt 0.9913 1.0000
vt 0.9913 -0.9431
vt 0.9887 1.0000
vt 0.9887 0.8794
vt 0.4343 0.8794
vt 0.9887 0.7554
vt 0.4343 0.7554
vt 0.9887 0.6395
vt 0.4343 0.6395
vt 0.9887 0.5354
vt 0.4343 0.5354
vt 0.9887 0.4349
vt 0.4343 0.4349
vt 0.9887 0.3425
vt 0.4343 0.3425
vt 0.9887 0.2234
vt 0.4343 0.2234
vt 0.9887 0.1065
vt 0.4343 0.1065
vt 0.9887 -0.0020
vt 0.4343 -0.0020
vt 0.5000 0.7960
vt 0.4955 0.6932
vt 0.5045 0.6932
vt 0.4822 0.5935
vt 0.5178 0.5935
vt 0.4603 0.5000
vt 0.5397 0.5000
vt 0.4308 0.4155
vt 0.5692 0.4155
vt 0.3943 0.3425
vt 0.6057 0.3425
vt 0.3520 0.2833
vt 0.6480 0.2833
vt 0.3053 0.2397
vt 0.6947 0.2397
vt 0.2554 0.2130
vt 0.7446 0.2130
vt 0.2040 0.2040
vt 0.7960 0.2040
vt 0.0000 0.0000
vt 0.0000 0.0000
vt 0.0000 0.0000
vt 0.0000 0.0000
vt 0.0000 0.0000
vt 0.0000 0.0000
vt 0.0000 0.0000
vt 0.0000 0.0000
vt 0.0000 0.0000
vt 0.0000 0.0000
vt 0.0000 0.0000
vt 0.0000 0.0000
vt 0.0000 0.0000
vt 0.0000 0.0000
vt 0.0000 0.0000
vt 0.0000 0.0000
vt 0.0000 0.0000
vt 0.0000 0.0000
vt 0.0000 0.0000
vt 0.0000 0.0000
vt 0.0000 0.0000
vt 0.0000 0.0000
vt 0.0000 0.0000
vt 0.0000 0.0000
vt 0.0000 0.0000
vt 0.0000 0.0000
vt 0.0000 0.0000
vt 0.0000 0.0000
vt 0.0000 0.0000
vt 0.0000 0.0000
vt 0.0000 0.0000
vt 0.0000 0.0000
vt 0.0000 0.0000
vt 0.0000 0.0000
vt 0.0000 0.0000
vt 0.0000 0.0000
vt 0.0000 0.0000
vt 0.0000 0.0000
vt 0.0000 0.0000
vt 0.0000 0.0000
vt 0.0000 0.0000
vt 0.0000 0.0000
vt 0.0000 0.0000
vt 0.0000 0.0000
vn -0.5148 0.8573 0.0000
vn -0.5143 0.8564 0.0450
vn -0.4986 0.8565 0.1336
vn -0.4679 0.8564 0.2182
vn -0.4229 0.8565 0.2961
vn -0.3651 0.8564 0.3650
vn -0.2961 0.8565 0.4228
vn -0.2182 0.8565 0.4678
vn -0.1336 0.8565 0.4986
vn -0.0450 0.8565 0.5142
vn 0.5148 0.8573 0.0000
vn 0.5143 0.8564 0.0450
vn 0.4986 0.8565 0.1336
vn 0.4679 0.8564 0.2182
vn 0.4229 0.8564 0.2961
vn 0.3650 0.8565 0.3650
vn 0.2961 0.8564 0.4229
vn 0.2182 0.8565 0.4678
vn 0.1336 0.8565 0.4986
vn 0.0450 0.8565 0.5142
vn -1.0000 0.0000 0.0000
vn 0.0000 1.0000 0.0000
vn -0.9962 0.0000 0.0871
vn -0.9659 0.0000 0.2588
vn -0.9063 0.0000 0.4226
vn -0.8192 0.0000 0.5735
vn -0.7071 0.0000 0.7071
vn -0.5736 0.0000 0.8191
vn -0.4226 0.0000 0.9063
vn -0.2589 0.0000 0.9659
vn -0.0872 0.0000 0.9962
vn 1.0000 0.0000 0.0000
vn 0.9962 0.0000 0.0871
vn 0.9659 0.0000 0.2588
vn 0.9063 0.0000 0.4226
vn 0.8192 0.0000 0.5735
vn 0.7071 0.0000 0.7071
vn 0.5736 0.0000 0.8191
vn 0.4226 0.0000 0.9063
vn 0.2589 0.0000 0.9659
vn 0.0872 0.0000 0.9962
vn 0.9983 0.0000 0.0586
vn 0.9961 0.0000 -0.0878
vn 0.9578 0.0000 -0.2873
vn 0.8932 0.0000 -0.4497
vn 0.8174 0.0000 -0.5761
vn 0.6908 0.0000 -0.7230
vn 0.5433 0.0000 -0.8396
vn 0.3987 0.0000 -0.9171
vn 0.2498 0.0000 -0.9683
vn -0.9983 0.0000 0.0588
vn -0.9961 0.0000 -0.0878
vn -0.9578 0.0000 -0.2873
vn -0.8932 0.0000 -0.4497
vn -0.8174 0.0000 -0.5761
vn -0.6835 0.0000 -0.7300
vn -0.5501 0.0000 -0.8351
vn -0.3987 0.0000 -0.9171
vn -0.2498 0.0000 -0.9683
usemtl None
s off
f 9/1/1 12/2/1 11/3/1 10/4/1
f 9/5/2 10/6/2 19/7/2 18/8/2
f 18/8/3 19/7/3 26/9/3 25/10/3
f 25/10/4 26/9/4 33/11/4 32/12/4
f 32/12/5 33/11/5 40/13/5 39/14/5
f 39/14/6 40/13/6 47/15/6 46/16/6
f 46/16/7 47/15/7 54/17/7 53/18/7
f 53/18/8 54/17/8 61/19/8 60/20/8
f 60/20/9 61/19/9 68/21/9 67/22/9
f 67/22/10 68/21/10 75/23/10 74/24/10
f 86/25/11 87/26/11 88/27/11 89/28/11
f 86/29/12 95/30/12 96/31/12 87/32/12
f 95/30/13 102/33/13 103/34/13 96/31/13
f 102/33/14 109/35/14 110/36/14 103/34/14
f 109/35/15 116/37/15 117/38/15 110/36/15
f 116/37/16 123/39/16 124/40/16 117/38/16
f 123/39/17 130/41/17 131/42/17 124/40/17
f 130/41/18 137/43/18 138/44/18 131/42/18
f 137/43/19 144/45/19 145/46/19 138/44/19
f 144/45/20 151/47/20 152/48/20 145/46/20
usemtl None_CordonTop.jpg.001
f 4/49/21 3/50/21 10/51/21 11/52/21
f 9/53/22 7/54/22 8/55/22 12/56/22
f 7/57/22 9/58/22 18/59/22 17/60/22
f 10/61/23 3/62/23 15/63/23 19/64/23
f 19/64/24 15/63/24 22/65/24 26/66/24
f 17/60/22 18/59/22 25/67/22 24/68/22
f 24/68/22 25/67/22 32/69/22 31/70/22
f 26/66/25 22/65/25 29/71/25 33/72/25
f 31/70/22 32/69/22 39/73/22 38/74/22
f 33/72/26 29/71/26 36/75/26 40/76/26
f 40/76/27 36/75/27 43/77/27 47/78/27
f 38/74/22 39/73/22 46/79/22 45/80/22
f 45/80/22 46/79/22 53/81/22 52/82/22
f 47/78/28 43/77/28 50/83/28 54/84/28
f 54/84/29 50/83/29 57/85/29 61/86/29
f 52/82/22 53/81/22 60/87/22 59/88/22
f 61/86/30 57/85/30 64/89/30 68/90/30
f 59/88/22 60/87/22 67/91/22 66/92/22
f 66/92/22 67/91/22 74/93/22 73/94/22
f 68/90/31 64/89/31 71/95/31 75/96/31
f 81/97/32 88/98/32 87/99/32 80/100/32
f 86/101/22 89/102/22 85/103/22 84/104/22
f 84/105/22 94/106/22 95/107/22 86/108/22
f 87/109/33 96/110/33 92/111/33 80/112/33
f 96/110/34 103/113/34 99/114/34 92/111/34
f 94/106/22 101/115/22 102/116/22 95/107/22
f 101/115/22 108/117/22 109/118/22 102/116/22
f 103/113/35 110/119/35 106/120/35 99/114/35
f 108/117/22 115/121/22 116/122/22 109/118/22
f 110/119/36 117/123/36 113/124/36 106/120/36
f 117/123/37 124/125/37 120/126/37 113/124/37
f 115/121/22 122/127/22 123/128/22 116/122/22
f 122/127/22 129/129/22 130/130/22 123/128/22
f 124/125/38 131/131/38 127/132/38 120/126/38
f 131/131/39 138/133/39 134/134/39 127/132/39
f 129/129/22 136/135/22 137/136/22 130/130/22
f 138/133/40 145/137/40 141/138/40 134/134/40
f 136/135/22 143/139/22 144/140/22 137/136/22
f 143/139/22 150/141/22 151/142/22 144/140/22
f 145/137/41 152/143/41 148/144/41 141/138/41
usemtl None_FloorsRegular0277_1_S.jpg.001
f 7/145/22 5/146/22 6/147/22 8/148/22
f 5/149/22 7/150/22 17/151/22 16/152/22
f 16/152/22 17/151/22 24/153/22 23/154/22
f 23/154/22 24/153/22 31/155/22 30/156/22
f 30/156/22 31/155/22 38/157/22 37/158/22
f 37/158/22 38/157/22 45/159/22 44/160/22
f 44/160/22 45/159/22 52/161/22 51/162/22
f 51/162/22 52/161/22 59/163/22 58/164/22
f 58/164/22 59/163/22 66/165/22 65/166/22
f 65/166/22 66/165/22 73/167/22 72/168/22
f 84/169/22 85/170/22 83/171/22 82/172/22
f 82/173/22 93/174/22 94/175/22 84/176/22
f 93/174/22 100/177/22 101/178/22 94/175/22
f 100/177/22 107/179/22 108/180/22 101/178/22
f 107/179/22 114/181/22 115/182/22 108/180/22
f 114/181/22 121/183/22 122/184/22 115/182/22
f 121/183/22 128/185/22 129/186/22 122/184/22
f 128/185/22 135/187/22 136/188/22 129/186/22
f 135/187/22 142/189/22 143/190/22 136/188/22
f 142/189/22 149/191/22 150/192/22 143/190/22
usemtl None_Roads0069_9_S.jpg
f 78/193/22 3/194/22 4/195/22 79/196/22
f 3/197/22 78/198/22 14/199/22 15/200/22
f 15/200/22 14/199/22 21/201/22 22/202/22
f 22/202/22 21/201/22 28/203/22 29/204/22
f 29/204/22 28/203/22 35/205/22 36/206/22
f 36/206/22 35/205/22 42/207/22 43/208/22
f 43/208/22 42/207/22 49/209/22 50/210/22
f 50/210/22 49/209/22 56/211/22 57/212/22
f 57/212/22 56/211/22 63/213/22 64/214/22
f 64/214/22 63/213/22 70/215/22 71/216/22
f 78/193/22 79/196/22 81/217/22 80/218/22
f 80/219/22 92/220/22 91/221/22 78/198/22
f 92/220/22 99/222/22 98/223/22 91/221/22
f 99/222/22 106/224/22 105/225/22 98/223/22
f 106/224/22 113/226/22 112/227/22 105/225/22
f 113/226/22 120/228/22 119/229/22 112/227/22
f 120/228/22 127/230/22 126/231/22 119/229/22
f 127/230/22 134/232/22 133/233/22 126/231/22
f 134/232/22 141/234/22 140/235/22 133/233/22
f 141/234/22 148/236/22 147/237/22 140/235/22
usemtl None_RoadTexture2.jpg
f 78/238/22 91/239/22 14/240/22
f 14/240/22 91/239/22 98/241/22 21/242/22
f 21/242/22 98/241/22 105/243/22 28/244/22
f 28/244/22 105/243/22 112/245/22 35/246/22
f 35/246/22 112/245/22 119/247/22 42/248/22
f 42/248/22 119/247/22 126/249/22 49/250/22
f 49/250/22 126/249/22 133/251/22 56/252/22
f 56/252/22 133/251/22 140/253/22 63/254/22
f 63/254/22 140/253/22 147/255/22 70/256/22
usemtl None_NONE
f 1/257/32 2/258/32 6/259/32 5/260/32
f 1/257/42 5/260/42 16/261/42 13/262/42
f 13/262/43 16/261/43 23/263/43 20/264/43
f 20/264/44 23/263/44 30/265/44 27/266/44
f 27/266/45 30/265/45 37/267/45 34/268/45
f 34/268/46 37/267/46 44/269/46 41/270/46
f 41/270/47 44/269/47 51/271/47 48/272/47
f 48/272/48 51/271/48 58/273/48 55/274/48
f 55/274/49 58/273/49 65/275/49 62/276/49
f 62/276/50 65/275/50 72/277/50 69/278/50
f 76/279/21 82/280/21 83/281/21 77/282/21
f 76/279/51 90/283/51 93/284/51 82/280/51
f 90/283/52 97/285/52 100/286/52 93/284/52
f 97/285/53 104/287/53 107/288/53 100/286/53
f 104/287/54 111/289/54 114/290/54 107/288/54
f 111/289/55 118/291/55 121/292/55 114/290/55
f 118/291/56 125/293/56 128/294/56 121/292/56
f 125/293/57 132/295/57 135/296/57 128/294/57
f 132/295/58 139/297/58 142/298/58 135/296/58
f 139/297/59 146/299/59 149/300/59 142/298/59
