# Blender v2.75 (sub 0) OBJ File: 'Room.blend'
# www.blender.org
mtllib Room.mtl
o Cube
v 5.000000 0.000000 -5.000000
v 5.000000 0.000000 5.000000
v -5.000000 0.000000 4.999999
v -4.999998 0.000000 -5.000002
v 5.000002 4.000000 -4.999998
v 4.999997 4.000000 5.000003
v -5.000002 4.000000 4.999998
v -5.000000 4.000000 -5.000000
v 5.000000 0.000000 -5.000000
v 5.000000 0.000000 -5.000000
v 5.000000 0.000000 5.000000
v 5.000000 0.000000 5.000000
v -4.999998 0.000000 -5.000002
v -4.999998 0.000000 -5.000002
v 5.000002 4.000000 -4.999998
v 5.000002 4.000000 -4.999998
v -5.000000 0.000000 4.999999
v -5.000000 0.000000 4.999999
v 4.999997 4.000000 5.000003
v 4.999997 4.000000 5.000003
v -5.000002 4.000000 4.999998
v -5.000002 4.000000 4.999998
v -5.000000 4.000000 -5.000000
v -5.000000 4.000000 -5.000000
vt -2.625000 -2.625000
vt 3.625000 -2.625000
vt 3.625000 3.625000
vt -2.625000 3.625000
vt 5.499001 5.499162
vt -4.498998 5.499166
vt -4.499000 -4.498830
vt 5.498994 -4.498835
vt 5.499368 -0.499709
vt -4.499364 -0.499709
vt -4.499368 -4.499202
vt 5.499365 -4.499202
vn 0.000000 1.000000 0.000000
vn 0.000000 -1.000000 0.000000
vn -1.000000 -0.000000 -0.000000
vn 0.000000 0.000000 -1.000000
vn 1.000000 0.000000 0.000000
vn -0.000000 -0.000000 1.000000
usemtl FloorMaterial
s off
f 9/1/1 13/2/1 17/3/1 11/4/1
usemtl WallMaterial
f 16/5/2 20/6/2 22/7/2 24/8/2
f 10/9/3 12/10/3 19/11/3 15/12/3
f 2/9/4 18/10/4 21/11/4 6/12/4
f 3/11/5 14/12/5 23/9/5 7/10/5
f 5/9/6 8/10/6 4/11/6 1/12/6
